<svg width="54" height="54" viewBox="0 0 54 54" fill="none" xmlns="http://www.w3.org/2000/svg">
<g clip-path="url(#clip0)">
<path d="M42.2753 43.566C50.382 35.1065 50.0961 21.6769 41.6365 13.5702C33.177 5.46342 19.7474 5.74944 11.6407 14.2089C3.77703 22.4148 3.77703 35.3601 11.6407 43.566L6.12858 50.9141C5.48953 51.7663 5.6622 52.9752 6.51427 53.6142C7.36634 54.2533 8.57528 54.0806 9.21433 53.2285L14.5567 46.1041C21.9473 51.489 31.9685 51.489 39.359 46.1041L44.7014 53.2285C45.3404 54.0807 46.5494 54.2534 47.4015 53.6142C48.2536 52.9752 48.4263 51.7662 47.7871 50.9141L42.2753 43.566ZM28.8867 28.9276C28.8867 29.345 28.7513 29.751 28.501 30.0848L22.7151 37.7994C22.076 38.6516 20.8671 38.8243 20.015 38.1851C19.163 37.5459 18.9902 36.3371 19.6293 35.485L25.0296 28.2854V17.3558C25.0296 16.2906 25.8931 15.4271 26.9583 15.4271C28.0235 15.4271 28.8869 16.2906 28.8869 17.3558V28.9276H28.8867Z" fill="#FFD50C"/>
<path d="M16.4183 2.8235C12.6053 -0.894635 6.50009 -0.817678 2.78184 2.99538C-0.869854 6.7403 -0.870306 12.7136 2.78093 16.4591C3.53412 17.212 4.75493 17.212 5.508 16.4591L16.4183 5.55068C17.1713 4.7975 17.1713 3.57669 16.4183 2.8235Z" fill="#FFD50C"/>
<path d="M51.1335 2.82344C47.3678 -0.941146 41.2637 -0.941146 37.4981 2.82344C36.7451 3.57662 36.7451 4.79743 37.4981 5.55051L48.4065 16.4589C49.1597 17.2119 50.3805 17.2119 51.1335 16.4589C54.8981 12.6933 54.8981 6.58915 51.1335 2.82344Z" fill="#FFD50C"/>
</g>
<defs>
<clipPath id="clip0">
<rect width="54" height="54" fill="white"/>
</clipPath>
</defs>
</svg>
