<svg width="13" height="23" viewBox="0 0 13 23" fill="none" xmlns="http://www.w3.org/2000/svg">
<path opacity="0.5" d="M2.0186 22.7313C2.22465 22.7315 2.42873 22.6911 2.6191 22.6122C2.80947 22.5334 2.98239 22.4177 3.12791 22.2718L12.5405 12.8593C12.6862 12.7136 12.8017 12.5406 12.8806 12.3503C12.9594 12.16 13 11.956 13 11.7499C13 11.5439 12.9594 11.3399 12.8806 11.1496C12.8017 10.9592 12.6862 10.7863 12.5405 10.6406L3.12791 1.22805C2.8337 0.933839 2.43467 0.768555 2.0186 0.768555C1.60253 0.768555 1.2035 0.933839 0.909287 1.22805C0.61508 1.52225 0.449795 1.92129 0.449795 2.33736C0.449795 2.75343 0.61508 3.15246 0.909287 3.44667L9.21262 11.7499L0.909287 20.0532C0.68988 20.2726 0.540462 20.5521 0.479926 20.8565C0.41939 21.1608 0.450456 21.4762 0.569197 21.7629C0.687937 22.0495 0.889019 22.2945 1.14701 22.4669C1.405 22.6393 1.70832 22.7313 2.0186 22.7313Z" fill="#313131"/>
</svg>
