<svg width="17" height="9" viewBox="0 0 17 9" fill="none" xmlns="http://www.w3.org/2000/svg">
<path opacity="0.5" d="M17 7.87497C17.0002 7.7272 16.9689 7.58086 16.9079 7.44434C16.8468 7.30782 16.7573 7.18382 16.6444 7.07946L9.35867 0.329523C9.24591 0.225052 9.11204 0.14218 8.96472 0.0856407C8.81739 0.029101 8.65948 3.78518e-07 8.50002 3.71547e-07C8.34055 3.64577e-07 8.18264 0.029101 8.03531 0.0856406C7.88799 0.14218 7.75412 0.225052 7.64137 0.329523L0.355664 7.07946C0.127936 7.29044 -3.31184e-07 7.5766 -3.44226e-07 7.87497C-3.57268e-07 8.17334 0.127936 8.45949 0.355664 8.67048C0.583392 8.88146 0.892258 8.99999 1.21431 8.99999C1.53637 8.99999 1.84524 8.88146 2.07296 8.67048L8.50002 2.716L14.9271 8.67048C15.0969 8.82782 15.3133 8.93497 15.5488 8.97838C15.7844 9.02179 16.0285 8.99951 16.2504 8.91436C16.4723 8.82921 16.6619 8.68501 16.7954 8.5C16.9288 8.31499 17 8.09748 17 7.87497Z" fill="#313131"/>
</svg>
