<svg width="13" height="23" viewBox="0 0 13 23" fill="none" xmlns="http://www.w3.org/2000/svg">
<path opacity="0.5" d="M10.9814 22.7313C10.7753 22.7315 10.5713 22.6911 10.3809 22.6122C10.1905 22.5334 10.0176 22.4177 9.87209 22.2718L0.459509 12.8593C0.313827 12.7136 0.198266 12.5406 0.119423 12.3503C0.0405799 12.16 0 11.956 0 11.7499C0 11.5439 0.0405799 11.3399 0.119423 11.1496C0.198266 10.9592 0.313827 10.7863 0.459509 10.6406L9.87209 1.22805C10.1663 0.933839 10.5653 0.768555 10.9814 0.768555C11.3975 0.768555 11.7965 0.933839 12.0907 1.22805C12.3849 1.52225 12.5502 1.92129 12.5502 2.33736C12.5502 2.75343 12.3849 3.15246 12.0907 3.44667L3.78738 11.7499L12.0907 20.0532C12.3101 20.2726 12.4595 20.5521 12.5201 20.8565C12.5806 21.1608 12.5495 21.4762 12.4308 21.7629C12.3121 22.0495 12.111 22.2945 11.853 22.4669C11.595 22.6393 11.2917 22.7313 10.9814 22.7313Z" fill="#313131"/>
</svg>
