<svg width="17" height="9" viewBox="0 0 17 9" fill="none" xmlns="http://www.w3.org/2000/svg">
<path opacity="0.5" d="M0.000245704 1.12503C3.97166e-05 1.2728 0.0313527 1.41914 0.092384 1.55566C0.153415 1.69218 0.242962 1.81618 0.355879 1.92054L7.64158 8.67048C7.75434 8.77495 7.8882 8.85782 8.03553 8.91436C8.18286 8.9709 8.34076 9 8.50023 9C8.6597 9 8.8176 8.9709 8.96493 8.91436C9.11226 8.85782 9.24612 8.77495 9.35888 8.67048L16.6446 1.92054C16.8723 1.70956 17.0002 1.4234 17.0002 1.12503C17.0002 0.826658 16.8723 0.540505 16.6446 0.329523C16.4169 0.118541 16.108 1.33904e-05 15.7859 1.34045e-05C15.4639 1.34186e-05 15.155 0.118541 14.9273 0.329523L8.50023 6.284L2.07318 0.329524C1.90336 0.172183 1.68699 0.0650327 1.45144 0.0216205C1.21588 -0.0217908 0.971723 0.000487075 0.749837 0.0856388C0.52795 0.170789 0.338302 0.314989 0.204876 0.5C0.0714489 0.685012 0.000236157 0.902524 0.000245704 1.12503Z" fill="#313131"/>
</svg>
