<svg width="46" height="44" viewBox="0 0 46 44" fill="none" xmlns="http://www.w3.org/2000/svg">
<path opacity="0.5" d="M3.85046 44C2.90479 44 1.62139 43.8679 0.000244141 43.6036L1.01346 38.0541C2.7697 38.0541 3.98556 37.6577 4.66104 36.8649C5.47161 36.0721 6.07954 34.949 6.48482 33.4955L7.90333 23.5856H6.28218C5.33651 23.5856 4.59349 23.3213 4.05311 22.7928C3.51272 22.2643 3.24253 21.5375 3.24253 20.6126C3.24253 20.2162 3.31008 19.952 3.44517 19.8198L5.8769 3.96396C6.28218 1.32132 7.63313 0 9.92976 0H19.6566C21.1427 0 21.8857 0.924923 21.8857 2.77477V3.96396L17.2249 32.3063C16.5494 36.6667 14.9283 39.7057 12.3615 41.4234C9.79466 43.1411 6.95766 44 3.85046 44ZM27.965 44C27.0193 44 25.7359 43.8679 24.1148 43.6036L25.128 38.0541C26.8842 38.0541 28.1001 37.6577 28.7756 36.8649C29.5861 36.0721 30.1941 34.949 30.5994 33.4955L32.0179 23.5856H30.3967C29.451 23.5856 28.708 23.3213 28.1676 22.7928C27.6273 22.2643 27.3571 21.5375 27.3571 20.6126C27.3571 20.2162 27.4246 19.952 27.5597 19.8198L29.9914 3.96396C30.3967 1.32132 31.7477 0 34.0443 0H43.7712C45.2572 0 46.0002 0.924923 46.0002 2.77477V3.96396L41.3395 32.3063C40.664 36.6667 39.0428 39.7057 36.476 41.4234C33.9092 43.1411 31.0722 44 27.965 44Z" fill="url(#paint0_linear)"/>
<defs>
<linearGradient id="paint0_linear" x1="22.2565" y1="44" x2="19.3397" y2="0.186558" gradientUnits="userSpaceOnUse">
<stop stop-color="#FFD408"/>
<stop offset="1" stop-color="#FFDF46"/>
</linearGradient>
</defs>
</svg>
