<svg width="157" height="579" viewBox="0 0 157 579" fill="none" xmlns="http://www.w3.org/2000/svg">
<g opacity="0.3">
<path d="M208.394 0C209.828 0 211 1.17386 211 2.61124C211 4.04862 209.828 5.22248 208.394 5.22248C206.959 5.22248 205.787 4.04862 205.787 2.61124C205.787 1.17386 206.959 0 208.394 0Z" fill="#C1C1C1"/>
<path d="M208.394 47.8168C209.828 47.8168 211 48.9907 211 50.428C211 51.8654 209.828 53.0393 208.394 53.0393C206.959 53.0393 205.787 51.8654 205.787 50.428C205.787 48.9907 206.959 47.8168 208.394 47.8168Z" fill="#C1C1C1"/>
<path d="M208.394 95.6336C209.828 95.6336 211 96.8074 211 98.2448C211 99.6822 209.828 100.856 208.394 100.856C206.959 100.856 205.787 99.6822 205.787 98.2448C205.787 96.8074 206.959 95.6336 208.394 95.6336Z" fill="#C1C1C1"/>
<path d="M208.394 143.45C209.828 143.45 211 144.624 211 146.062C211 147.499 209.828 148.673 208.394 148.673C206.959 148.673 205.787 147.499 205.787 146.062C205.787 144.624 206.959 143.45 208.394 143.45Z" fill="#C1C1C1"/>
<path d="M208.394 191.267C209.828 191.267 211 192.441 211 193.878C211 195.316 209.828 196.49 208.394 196.49C206.959 196.49 205.787 195.316 205.787 193.878C205.787 192.441 206.959 191.267 208.394 191.267Z" fill="#C1C1C1"/>
<path d="M208.394 239.084C209.828 239.084 211 240.258 211 241.695C211 243.133 209.828 244.306 208.394 244.306C206.959 244.306 205.787 243.133 205.787 241.695C205.787 240.258 206.959 239.084 208.394 239.084Z" fill="#C1C1C1"/>
<path d="M208.394 286.901C209.828 286.901 211 288.075 211 289.512C211 290.949 209.828 292.123 208.394 292.123C206.959 292.123 205.787 290.949 205.787 289.512C205.787 288.051 206.959 286.901 208.394 286.901Z" fill="#C1C1C1"/>
<path d="M208.394 334.718C209.828 334.718 211 335.891 211 337.329C211 338.766 209.828 339.94 208.394 339.94C206.959 339.94 205.787 338.766 205.787 337.329C205.787 335.891 206.959 334.718 208.394 334.718Z" fill="#C1C1C1"/>
<path d="M208.394 382.534C209.828 382.534 211 383.708 211 385.146C211 386.583 209.828 387.757 208.394 387.757C206.959 387.757 205.787 386.583 205.787 385.146C205.787 383.708 206.959 382.534 208.394 382.534Z" fill="#C1C1C1"/>
<path d="M208.394 430.351C209.828 430.351 211 431.525 211 432.962C211 434.4 209.828 435.574 208.394 435.574C206.959 435.574 205.787 434.4 205.787 432.962C205.787 431.525 206.959 430.351 208.394 430.351Z" fill="#C1C1C1"/>
<path d="M208.394 478.168C209.828 478.168 211 479.342 211 480.779C211 482.217 209.828 483.39 208.394 483.39C206.959 483.39 205.787 482.217 205.787 480.779C205.787 479.342 206.959 478.168 208.394 478.168Z" fill="#C1C1C1"/>
<path d="M208.394 525.985C209.828 525.985 211 527.159 211 528.596C211 530.033 209.828 531.207 208.394 531.207C206.959 531.207 205.787 530.033 205.787 528.596C205.787 527.159 206.959 525.985 208.394 525.985Z" fill="#C1C1C1"/>
<path d="M208.394 573.778C209.828 573.778 211 574.951 211 576.389C211 577.826 209.828 579 208.394 579C206.959 579 205.787 577.826 205.787 576.389C205.787 574.951 206.959 573.778 208.394 573.778Z" fill="#C1C1C1"/>
<path d="M167.719 5.22248C169.159 5.22248 170.326 4.05338 170.326 2.61124C170.326 1.16909 169.159 0 167.719 0C166.28 0 165.113 1.16909 165.113 2.61124C165.113 4.05338 166.28 5.22248 167.719 5.22248Z" fill="#C1C1C1"/>
<path d="M167.719 47.8168C169.154 47.8168 170.326 48.9907 170.326 50.428C170.326 51.8654 169.154 53.0393 167.719 53.0393C166.284 53.0393 165.113 51.8654 165.113 50.428C165.137 48.9907 166.284 47.8168 167.719 47.8168Z" fill="#C1C1C1"/>
<path d="M167.719 95.6336C169.154 95.6336 170.326 96.8074 170.326 98.2448C170.326 99.6822 169.154 100.856 167.719 100.856C166.284 100.856 165.113 99.6822 165.113 98.2448C165.137 96.8074 166.284 95.6336 167.719 95.6336Z" fill="#C1C1C1"/>
<path d="M167.719 143.45C169.154 143.45 170.326 144.624 170.326 146.062C170.326 147.499 169.154 148.673 167.719 148.673C166.284 148.673 165.113 147.499 165.113 146.062C165.113 144.624 166.284 143.45 167.719 143.45Z" fill="#C1C1C1"/>
<path d="M167.719 196.466C169.159 196.466 170.326 195.297 170.326 193.854C170.326 192.412 169.159 191.243 167.719 191.243C166.28 191.243 165.113 192.412 165.113 193.854C165.113 195.297 166.28 196.466 167.719 196.466Z" fill="#C1C1C1"/>
<path d="M167.719 244.282C169.159 244.282 170.326 243.113 170.326 241.671C170.326 240.229 169.159 239.06 167.719 239.06C166.28 239.06 165.113 240.229 165.113 241.671C165.113 243.113 166.28 244.282 167.719 244.282Z" fill="#C1C1C1"/>
<path d="M167.719 292.099C169.159 292.099 170.326 290.93 170.326 289.488C170.326 288.046 169.159 286.877 167.719 286.877C166.28 286.877 165.113 288.046 165.113 289.488C165.113 290.93 166.28 292.099 167.719 292.099Z" fill="#C1C1C1"/>
<path d="M167.719 339.916C169.159 339.916 170.326 338.747 170.326 337.305C170.326 335.863 169.159 334.694 167.719 334.694C166.28 334.694 165.113 335.863 165.113 337.305C165.113 338.747 166.28 339.916 167.719 339.916Z" fill="#C1C1C1"/>
<path d="M167.719 387.733C169.159 387.733 170.326 386.564 170.326 385.122C170.326 383.679 169.159 382.51 167.719 382.51C166.28 382.51 165.113 383.679 165.113 385.122C165.113 386.564 166.28 387.733 167.719 387.733Z" fill="#C1C1C1"/>
<path d="M167.719 435.55C169.159 435.55 170.326 434.381 170.326 432.938C170.326 431.496 169.159 430.327 167.719 430.327C166.28 430.327 165.113 431.496 165.113 432.938C165.113 434.381 166.28 435.55 167.719 435.55Z" fill="#C1C1C1"/>
<path d="M167.719 483.366C169.159 483.366 170.326 482.197 170.326 480.755C170.326 479.313 169.159 478.144 167.719 478.144C166.28 478.144 165.113 479.313 165.113 480.755C165.113 482.197 166.28 483.366 167.719 483.366Z" fill="#C1C1C1"/>
<path d="M167.719 525.985C169.154 525.985 170.326 527.159 170.326 528.596C170.326 530.033 169.154 531.207 167.719 531.207C166.284 531.207 165.113 530.033 165.113 528.596C165.113 527.159 166.284 525.985 167.719 525.985Z" fill="#C1C1C1"/>
<path d="M167.719 573.778C169.154 573.778 170.326 574.951 170.326 576.389C170.326 577.826 169.154 579 167.719 579C166.284 579 165.113 577.826 165.113 576.389C165.137 574.951 166.284 573.778 167.719 573.778Z" fill="#C1C1C1"/>
<path d="M127.069 0C128.503 0 129.675 1.17386 129.675 2.61124C129.675 4.04862 128.503 5.22248 127.069 5.22248C125.634 5.22248 124.462 4.04862 124.462 2.61124C124.462 1.17386 125.634 0 127.069 0Z" fill="#C1C1C1"/>
<path d="M127.069 47.8168C128.503 47.8168 129.675 48.9907 129.675 50.428C129.675 51.8654 128.503 53.0393 127.069 53.0393C125.634 53.0393 124.462 51.8654 124.462 50.428C124.462 48.9907 125.634 47.8168 127.069 47.8168Z" fill="#C1C1C1"/>
<path d="M127.069 95.6336C128.503 95.6336 129.675 96.8074 129.675 98.2448C129.675 99.6822 128.503 100.856 127.069 100.856C125.634 100.856 124.462 99.6822 124.462 98.2448C124.462 96.8074 125.634 95.6336 127.069 95.6336Z" fill="#C1C1C1"/>
<path d="M127.069 143.45C128.503 143.45 129.675 144.624 129.675 146.062C129.675 147.499 128.503 148.673 127.069 148.673C125.634 148.673 124.462 147.499 124.462 146.062C124.462 144.624 125.634 143.45 127.069 143.45Z" fill="#C1C1C1"/>
<path d="M127.069 191.267C128.503 191.267 129.675 192.441 129.675 193.878C129.675 195.316 128.503 196.49 127.069 196.49C125.634 196.49 124.462 195.316 124.462 193.878C124.462 192.441 125.634 191.267 127.069 191.267Z" fill="#C1C1C1"/>
<path d="M127.069 239.084C128.503 239.084 129.675 240.258 129.675 241.695C129.675 243.133 128.503 244.306 127.069 244.306C125.634 244.306 124.462 243.133 124.462 241.695C124.462 240.258 125.634 239.084 127.069 239.084Z" fill="#C1C1C1"/>
<path d="M127.069 286.901C128.503 286.901 129.675 288.075 129.675 289.512C129.675 290.949 128.503 292.123 127.069 292.123C125.634 292.123 124.462 290.949 124.462 289.512C124.462 288.051 125.634 286.901 127.069 286.901Z" fill="#C1C1C1"/>
<path d="M127.069 334.718C128.503 334.718 129.675 335.891 129.675 337.329C129.675 338.766 128.503 339.94 127.069 339.94C125.634 339.94 124.462 338.766 124.462 337.329C124.462 335.891 125.634 334.718 127.069 334.718Z" fill="#C1C1C1"/>
<path d="M127.069 382.534C128.503 382.534 129.675 383.708 129.675 385.146C129.675 386.583 128.503 387.757 127.069 387.757C125.634 387.757 124.462 386.583 124.462 385.146C124.462 383.708 125.634 382.534 127.069 382.534Z" fill="#C1C1C1"/>
<path d="M127.069 430.351C128.503 430.351 129.675 431.525 129.675 432.962C129.675 434.4 128.503 435.574 127.069 435.574C125.634 435.574 124.462 434.4 124.462 432.962C124.462 431.525 125.634 430.351 127.069 430.351Z" fill="#C1C1C1"/>
<path d="M127.069 478.168C128.503 478.168 129.675 479.342 129.675 480.779C129.675 482.217 128.503 483.39 127.069 483.39C125.634 483.39 124.462 482.217 124.462 480.779C124.462 479.342 125.634 478.168 127.069 478.168Z" fill="#C1C1C1"/>
<path d="M127.069 525.985C128.503 525.985 129.675 527.159 129.675 528.596C129.675 530.033 128.503 531.207 127.069 531.207C125.634 531.207 124.462 530.033 124.462 528.596C124.462 527.159 125.634 525.985 127.069 525.985Z" fill="#C1C1C1"/>
<path d="M127.069 573.778C128.503 573.778 129.675 574.951 129.675 576.389C129.675 577.826 128.503 579 127.069 579C125.634 579 124.462 577.826 124.462 576.389C124.462 574.951 125.634 573.778 127.069 573.778Z" fill="#C1C1C1"/>
<path d="M83.9313 0C85.366 0 86.5377 1.17386 86.5377 2.61124C86.5377 4.04862 85.366 5.22248 83.9313 5.22248C82.4965 5.22248 81.3248 4.04862 81.3248 2.61124C81.3248 1.17386 82.4965 0 83.9313 0Z" fill="#C1C1C1"/>
<path d="M83.9313 47.8168C85.366 47.8168 86.5377 48.9907 86.5377 50.428C86.5377 51.8654 85.366 53.0393 83.9313 53.0393C82.4965 53.0393 81.3248 51.8654 81.3248 50.428C81.3248 48.9907 82.4965 47.8168 83.9313 47.8168Z" fill="#C1C1C1"/>
<path d="M83.9313 95.6336C85.366 95.6336 86.5377 96.8074 86.5377 98.2448C86.5377 99.6822 85.366 100.856 83.9313 100.856C82.4965 100.856 81.3248 99.6822 81.3248 98.2448C81.3248 96.8074 82.4965 95.6336 83.9313 95.6336Z" fill="#C1C1C1"/>
<path d="M83.9313 143.45C85.366 143.45 86.5377 144.624 86.5377 146.062C86.5377 147.499 85.366 148.673 83.9313 148.673C82.4965 148.673 81.3248 147.499 81.3248 146.062C81.3248 144.624 82.4965 143.45 83.9313 143.45Z" fill="#C1C1C1"/>
<path d="M83.9313 191.267C85.366 191.267 86.5377 192.441 86.5377 193.878C86.5377 195.316 85.366 196.49 83.9313 196.49C82.4965 196.49 81.3248 195.316 81.3248 193.878C81.3248 192.441 82.4965 191.267 83.9313 191.267Z" fill="#C1C1C1"/>
<path d="M83.9313 239.084C85.366 239.084 86.5377 240.258 86.5377 241.695C86.5377 243.133 85.366 244.306 83.9313 244.306C82.4965 244.306 81.3248 243.133 81.3248 241.695C81.3248 240.258 82.4965 239.084 83.9313 239.084Z" fill="#C1C1C1"/>
<path d="M83.9313 286.901C85.366 286.901 86.5377 288.075 86.5377 289.512C86.5377 290.949 85.366 292.123 83.9313 292.123C82.4965 292.123 81.3248 290.949 81.3248 289.512C81.3248 288.051 82.4965 286.901 83.9313 286.901Z" fill="#C1C1C1"/>
<path d="M83.9313 334.718C85.366 334.718 86.5377 335.891 86.5377 337.329C86.5377 338.766 85.366 339.94 83.9313 339.94C82.4965 339.94 81.3248 338.766 81.3248 337.329C81.3248 335.891 82.4965 334.718 83.9313 334.718Z" fill="#C1C1C1"/>
<path d="M83.9313 382.534C85.366 382.534 86.5377 383.708 86.5377 385.146C86.5377 386.583 85.366 387.757 83.9313 387.757C82.4965 387.757 81.3248 386.583 81.3248 385.146C81.3248 383.708 82.4965 382.534 83.9313 382.534Z" fill="#C1C1C1"/>
<path d="M83.9313 430.351C85.366 430.351 86.5377 431.525 86.5377 432.962C86.5377 434.4 85.366 435.574 83.9313 435.574C82.4965 435.574 81.3248 434.4 81.3248 432.962C81.3248 431.525 82.4965 430.351 83.9313 430.351Z" fill="#C1C1C1"/>
<path d="M83.9313 478.168C85.366 478.168 86.5377 479.342 86.5377 480.779C86.5377 482.217 85.366 483.39 83.9313 483.39C82.4965 483.39 81.3248 482.217 81.3248 480.779C81.3248 479.342 82.4965 478.168 83.9313 478.168Z" fill="#C1C1C1"/>
<path d="M83.9313 525.985C85.366 525.985 86.5377 527.159 86.5377 528.596C86.5377 530.033 85.366 531.207 83.9313 531.207C82.4965 531.207 81.3248 530.033 81.3248 528.596C81.3248 527.159 82.4965 525.985 83.9313 525.985Z" fill="#C1C1C1"/>
<path d="M83.9313 573.778C85.366 573.778 86.5377 574.951 86.5377 576.389C86.5377 577.826 85.366 579 83.9313 579C82.4965 579 81.3248 577.826 81.3248 576.389C81.3248 574.951 82.4965 573.778 83.9313 573.778Z" fill="#C1C1C1"/>
<path d="M43.2569 5.22248C44.6964 5.22248 45.8633 4.05338 45.8633 2.61124C45.8633 1.16909 44.6964 0 43.2569 0C41.8174 0 40.6505 1.16909 40.6505 2.61124C40.6505 4.05338 41.8174 5.22248 43.2569 5.22248Z" fill="#C1C1C1"/>
<path d="M43.2569 47.8168C44.6916 47.8168 45.8633 48.9907 45.8633 50.428C45.8633 51.8654 44.6916 53.0393 43.2569 53.0393C41.8222 53.0393 40.6505 51.8654 40.6505 50.428C40.6744 48.9907 41.8222 47.8168 43.2569 47.8168Z" fill="#C1C1C1"/>
<path d="M43.2569 95.6336C44.6916 95.6336 45.8633 96.8074 45.8633 98.2448C45.8633 99.6822 44.6916 100.856 43.2569 100.856C41.8222 100.856 40.6505 99.6822 40.6505 98.2448C40.6744 96.8074 41.8222 95.6336 43.2569 95.6336Z" fill="#C1C1C1"/>
<path d="M43.2569 143.45C44.6916 143.45 45.8633 144.624 45.8633 146.062C45.8633 147.499 44.6916 148.673 43.2569 148.673C41.8222 148.673 40.6505 147.499 40.6505 146.062C40.6505 144.624 41.8222 143.45 43.2569 143.45Z" fill="#C1C1C1"/>
<path d="M43.2569 196.466C44.6964 196.466 45.8633 195.297 45.8633 193.854C45.8633 192.412 44.6964 191.243 43.2569 191.243C41.8174 191.243 40.6505 192.412 40.6505 193.854C40.6505 195.297 41.8174 196.466 43.2569 196.466Z" fill="#C1C1C1"/>
<path d="M43.2569 244.282C44.6964 244.282 45.8633 243.113 45.8633 241.671C45.8633 240.229 44.6964 239.06 43.2569 239.06C41.8174 239.06 40.6505 240.229 40.6505 241.671C40.6505 243.113 41.8174 244.282 43.2569 244.282Z" fill="#C1C1C1"/>
<path d="M43.2569 292.099C44.6964 292.099 45.8633 290.93 45.8633 289.488C45.8633 288.046 44.6964 286.877 43.2569 286.877C41.8174 286.877 40.6505 288.046 40.6505 289.488C40.6505 290.93 41.8174 292.099 43.2569 292.099Z" fill="#C1C1C1"/>
<path d="M43.2569 339.916C44.6964 339.916 45.8633 338.747 45.8633 337.305C45.8633 335.863 44.6964 334.694 43.2569 334.694C41.8174 334.694 40.6505 335.863 40.6505 337.305C40.6505 338.747 41.8174 339.916 43.2569 339.916Z" fill="#C1C1C1"/>
<path d="M43.2569 387.733C44.6964 387.733 45.8633 386.564 45.8633 385.122C45.8633 383.679 44.6964 382.51 43.2569 382.51C41.8174 382.51 40.6505 383.679 40.6505 385.122C40.6505 386.564 41.8174 387.733 43.2569 387.733Z" fill="#C1C1C1"/>
<path d="M43.2569 435.55C44.6964 435.55 45.8633 434.381 45.8633 432.938C45.8633 431.496 44.6964 430.327 43.2569 430.327C41.8174 430.327 40.6505 431.496 40.6505 432.938C40.6505 434.381 41.8174 435.55 43.2569 435.55Z" fill="#C1C1C1"/>
<path d="M43.2569 483.366C44.6964 483.366 45.8633 482.197 45.8633 480.755C45.8633 479.313 44.6964 478.144 43.2569 478.144C41.8174 478.144 40.6505 479.313 40.6505 480.755C40.6505 482.197 41.8174 483.366 43.2569 483.366Z" fill="#C1C1C1"/>
<path d="M43.2569 525.985C44.6916 525.985 45.8633 527.159 45.8633 528.596C45.8633 530.033 44.6916 531.207 43.2569 531.207C41.8222 531.207 40.6505 530.033 40.6505 528.596C40.6505 527.159 41.8222 525.985 43.2569 525.985Z" fill="#C1C1C1"/>
<path d="M43.2569 573.778C44.6916 573.778 45.8633 574.951 45.8633 576.389C45.8633 577.826 44.6916 579 43.2569 579C41.8222 579 40.6505 577.826 40.6505 576.389C40.6744 574.951 41.8222 573.778 43.2569 573.778Z" fill="#C1C1C1"/>
<path d="M2.6064 0C4.04113 0 5.21281 1.17386 5.21281 2.61124C5.21281 4.04862 4.04113 5.22248 2.6064 5.22248C1.17168 5.22248 0 4.04862 0 2.61124C0 1.17386 1.17168 0 2.6064 0Z" fill="#C1C1C1"/>
<path d="M2.6064 47.8168C4.04113 47.8168 5.21281 48.9907 5.21281 50.428C5.21281 51.8654 4.04113 53.0393 2.6064 53.0393C1.17168 53.0393 0 51.8654 0 50.428C0 48.9907 1.17168 47.8168 2.6064 47.8168Z" fill="#C1C1C1"/>
<path d="M2.6064 95.6336C4.04113 95.6336 5.21281 96.8074 5.21281 98.2448C5.21281 99.6822 4.04113 100.856 2.6064 100.856C1.17168 100.856 0 99.6822 0 98.2448C0 96.8074 1.17168 95.6336 2.6064 95.6336Z" fill="#C1C1C1"/>
<path d="M2.6064 143.45C4.04113 143.45 5.21281 144.624 5.21281 146.062C5.21281 147.499 4.04113 148.673 2.6064 148.673C1.17168 148.673 0 147.499 0 146.062C0 144.624 1.17168 143.45 2.6064 143.45Z" fill="#C1C1C1"/>
<path d="M2.6064 191.267C4.04113 191.267 5.21281 192.441 5.21281 193.878C5.21281 195.316 4.04113 196.49 2.6064 196.49C1.17168 196.49 0 195.316 0 193.878C0 192.441 1.17168 191.267 2.6064 191.267Z" fill="#C1C1C1"/>
<path d="M2.6064 239.084C4.04113 239.084 5.21281 240.258 5.21281 241.695C5.21281 243.133 4.04113 244.306 2.6064 244.306C1.17168 244.306 0 243.133 0 241.695C0 240.258 1.17168 239.084 2.6064 239.084Z" fill="#C1C1C1"/>
<path d="M2.6064 286.901C4.04113 286.901 5.21281 288.075 5.21281 289.512C5.21281 290.949 4.04113 292.123 2.6064 292.123C1.17168 292.123 0 290.949 0 289.512C0 288.051 1.17168 286.901 2.6064 286.901Z" fill="#C1C1C1"/>
<path d="M2.6064 334.718C4.04113 334.718 5.21281 335.891 5.21281 337.329C5.21281 338.766 4.04113 339.94 2.6064 339.94C1.17168 339.94 0 338.766 0 337.329C0 335.891 1.17168 334.718 2.6064 334.718Z" fill="#C1C1C1"/>
<path d="M2.6064 382.534C4.04113 382.534 5.21281 383.708 5.21281 385.146C5.21281 386.583 4.04113 387.757 2.6064 387.757C1.17168 387.757 0 386.583 0 385.146C0 383.708 1.17168 382.534 2.6064 382.534Z" fill="#C1C1C1"/>
<path d="M2.6064 430.351C4.04113 430.351 5.21281 431.525 5.21281 432.962C5.21281 434.4 4.04113 435.574 2.6064 435.574C1.17168 435.574 0 434.4 0 432.962C0 431.525 1.17168 430.351 2.6064 430.351Z" fill="#C1C1C1"/>
<path d="M2.6064 478.168C4.04113 478.168 5.21281 479.342 5.21281 480.779C5.21281 482.217 4.04113 483.39 2.6064 483.39C1.17168 483.39 0 482.217 0 480.779C0 479.342 1.17168 478.168 2.6064 478.168Z" fill="#C1C1C1"/>
<path d="M2.6064 525.985C4.04113 525.985 5.21281 527.159 5.21281 528.596C5.21281 530.033 4.04113 531.207 2.6064 531.207C1.17168 531.207 0 530.033 0 528.596C0 527.159 1.17168 525.985 2.6064 525.985Z" fill="#C1C1C1"/>
<path d="M2.6064 573.778C4.04113 573.778 5.21281 574.951 5.21281 576.389C5.21281 577.826 4.04113 579 2.6064 579C1.17168 579 0 577.826 0 576.389C0 574.951 1.17168 573.778 2.6064 573.778Z" fill="#C1C1C1"/>
</g>
</svg>
