<svg width="39" height="39" viewBox="0 0 39 39" fill="none" xmlns="http://www.w3.org/2000/svg">
<circle cx="19.5" cy="19.5" r="19.5" fill="#FFD408"/>
<path d="M26.7215 15.7318C26.7028 15.6852 26.675 15.644 26.6398 15.6095L22.1405 11.1102C22.106 11.0758 22.064 11.048 22.0182 11.0285C21.9725 11.0097 21.9237 11 21.875 11H14.375C13.7547 11 13.25 11.5047 13.25 12.125V27.875C13.25 28.4953 13.7547 29 14.375 29H25.625C26.2453 29 26.75 28.4953 26.75 27.875V15.875C26.75 15.8263 26.7403 15.7775 26.7215 15.7318ZM23.375 24.5H16.625C16.418 24.5 16.25 24.332 16.25 24.125C16.25 23.918 16.418 23.75 16.625 23.75H23.375C23.582 23.75 23.75 23.918 23.75 24.125C23.75 24.332 23.582 24.5 23.375 24.5ZM23.375 21.5H16.625C16.418 21.5 16.25 21.332 16.25 21.125C16.25 20.918 16.418 20.75 16.625 20.75H23.375C23.582 20.75 23.75 20.918 23.75 21.125C23.75 21.332 23.582 21.5 23.375 21.5ZM23.375 18.5H16.625C16.418 18.5 16.25 18.332 16.25 18.125C16.25 17.918 16.418 17.75 16.625 17.75H23.375C23.582 17.75 23.75 17.918 23.75 18.125C23.75 18.332 23.582 18.5 23.375 18.5ZM22.625 15.5C22.4187 15.5 22.25 15.332 22.25 15.125V12.2803L25.4698 15.5H22.625Z" fill="#222222"/>
</svg>
