<svg width="81" height="82" viewBox="0 0 81 82" fill="none" xmlns="http://www.w3.org/2000/svg">
<g opacity="0.05" filter="url(#filter0_d)">
<ellipse cx="40.5" cy="38" rx="28.5" ry="29" fill="#FF6B6B"/>
</g>
<circle cx="64" cy="19" r="8" fill="#FF6B6B"/>
<path d="M61.6957 17.0566L61.6957 17.0566L64 18.9769L66.3043 17.0566C66.4748 16.9145 66.7475 16.9145 66.918 17.0566C66.918 17.0566 66.918 17.0566 66.918 17.0566L61.6957 17.0566ZM61.6957 17.0566C61.5251 16.9145 61.2525 16.9145 61.082 17.0566L61.6957 17.0566ZM64.6278 19.5L66.918 21.4086L66.918 21.4086L66.886 21.447C67.038 21.5737 67.038 21.7784 66.886 21.9051L64.6278 19.5ZM64.6278 19.5L66.918 17.5915L66.918 17.5914L66.886 17.553L64.6278 19.5ZM66.6111 22.05C66.7208 22.05 66.8321 22.0151 66.918 21.9435L61.114 21.447C60.962 21.5737 60.962 21.7784 61.114 21.9051L61.082 21.9435C61.082 21.9435 61.082 21.9435 61.082 21.9435C61.1679 22.0151 61.2792 22.05 61.3889 22.05C61.4985 22.05 61.6098 22.0151 61.6957 21.9435L64 20.0232L66.3043 21.9435C66.3902 22.0151 66.5015 22.05 66.6111 22.05ZM63.3722 19.5L61.082 21.4086L61.082 17.5915L63.3722 19.5Z" fill="white" stroke="white" stroke-width="0.1"/>
<g filter="url(#filter1_d)">
<path d="M43.5 45.3076H44.0001C44.1324 45.3076 44.2601 45.2531 44.3535 45.1556L46.8536 42.5617C46.9475 42.464 47.0001 42.3324 47.0001 42.1948V41.676H44.5C43.9477 41.676 43.5 42.1237 43.5 42.676V45.3076Z" fill="#FF6B6B"/>
<path d="M42.9999 40.6384H46.0001C46.5523 40.6384 47.0001 40.1907 47.0001 39.6384V38.5189C47.0001 38.2501 46.7687 38.0445 46.5 38.0445C43.4676 38.0445 41.0001 35.4842 41.0001 32.3376C41.0001 29.1912 43.4676 26.6309 46.5 26.6309C46.7687 26.6309 47.0001 26.425 47.0001 26.1563V20.9241C47.0001 20.6376 46.7759 20.4053 46.5 20.4053H30.5001C30.2239 20.4053 30 20.6376 30 20.9241V44.7888C30 45.0753 30.2239 45.3076 30.5001 45.3076H41.5001C42.0523 45.3076 42.5001 44.8599 42.5001 44.3076V41.1573C42.5001 40.8708 42.724 40.6384 42.9999 40.6384ZM33 25.0745C33 24.7881 33.2239 24.5556 33.5001 24.5556H43.5C43.7759 24.5556 44.0001 24.7881 44.0001 25.0745V26.1308C44.0001 26.407 43.7762 26.6309 43.5 26.6309C43.2238 26.6309 42.9999 26.407 42.9999 26.1308V26.1121C42.9999 25.8256 42.7677 25.5933 42.4812 25.5933H34.9999C34.4477 25.5933 33.9999 26.041 33.9999 26.5933V29.7812C33.9999 30.3335 34.4477 30.7812 34.9999 30.7812H39.4811C39.7676 30.7812 39.9999 31.0135 39.9999 31.3C39.9999 31.5866 39.7676 31.8189 39.4811 31.8189H33.5001C33.2239 31.8189 33 31.5864 33 31.3V25.0745ZM39.5 33.894C39.7761 33.894 39.9999 34.1178 39.9999 34.3939V34.4317C39.9999 34.7079 39.7761 34.9317 39.5 34.9317C39.2238 34.9317 39 34.7079 39 34.4317V34.3939C39 34.1178 39.2238 33.894 39.5 33.894ZM33 34.4128C33 34.1263 33.2323 33.894 33.5189 33.894H37.4812C37.7678 33.894 38.0001 34.1263 38.0001 34.4128C38.0001 34.6994 37.7678 34.9317 37.4812 34.9317H33.5189C33.2323 34.9317 33 34.6994 33 34.4128ZM33 37.5256C33 37.2391 33.2323 37.0068 33.5189 37.0068H35.4811C35.7677 37.0068 36 37.2391 36 37.5256C36 37.8122 35.7677 38.0445 35.4811 38.0445H33.5189C33.2323 38.0445 33 37.8122 33 37.5256ZM38.0001 40.6384C38.0001 40.925 37.7678 41.1573 37.4812 41.1573H33.5189C33.2323 41.1573 33 40.925 33 40.6384C33 40.3519 33.2323 40.1196 33.5189 40.1196H37.4812C37.7678 40.1196 38.0001 40.3519 38.0001 40.6384ZM41.0001 40.6384C41.0001 40.925 40.7678 41.1573 40.4812 41.1573H39.5189C39.2323 41.1573 39 40.925 39 40.6384C39 40.3519 39.2323 40.1196 39.5189 40.1196H40.4812C40.7678 40.1196 41.0001 40.3519 41.0001 40.6384ZM42 37.5256C42 37.8122 41.7677 38.0445 41.4811 38.0445H37.5188C37.2322 38.0445 36.9999 37.8122 36.9999 37.5256C36.9999 37.2391 37.2322 37.0068 37.5188 37.0068H41.4811C41.7677 37.0068 42 37.2391 42 37.5256Z" fill="#FF6B6B"/>
<path d="M46.5 27.6684C44.0145 27.6684 42 29.7587 42 32.3376C42 34.9165 44.0145 37.0068 46.5 37.0068C48.9855 37.0068 51 34.9165 51 32.3376C51 29.7587 48.9855 27.6684 46.5 27.6684ZM48.2806 33.452C48.4706 33.6492 48.4706 33.9613 48.2806 34.1585C48.0803 34.3663 47.7476 34.3663 47.5473 34.1584L47.2069 33.805C46.8208 33.4042 46.1791 33.4041 45.7929 33.8049L45.4526 34.1581C45.2524 34.3658 44.9197 34.3658 44.7195 34.1581C44.5295 33.9609 44.5295 33.6488 44.7195 33.4516L45.1245 33.0314C45.4976 32.6441 45.4977 32.031 45.1245 31.6437L44.7194 31.2232C44.5294 31.026 44.5295 30.7139 44.7195 30.5167C44.9197 30.309 45.2524 30.309 45.4526 30.5168L45.7931 30.8703C46.1792 31.271 46.8209 31.2711 47.207 30.8704L47.5474 30.5172C47.7476 30.3095 48.0803 30.3095 48.2805 30.5172C48.4705 30.7144 48.4705 31.0266 48.2805 31.2237L47.8756 31.6438C47.5024 32.031 47.5023 32.6442 47.8755 33.0315L48.2806 33.452Z" fill="#FF6B6B"/>
</g>
<defs>
<filter id="filter0_d" x="0" y="0" width="81" height="82" filterUnits="userSpaceOnUse" color-interpolation-filters="sRGB">
<feFlood flood-opacity="0" result="BackgroundImageFix"/>
<feColorMatrix in="SourceAlpha" type="matrix" values="0 0 0 0 0 0 0 0 0 0 0 0 0 0 0 0 0 0 127 0"/>
<feOffset dy="3"/>
<feGaussianBlur stdDeviation="6"/>
<feColorMatrix type="matrix" values="0 0 0 0 1 0 0 0 0 0.419608 0 0 0 0 0.419608 0 0 0 0.51 0"/>
<feBlend mode="normal" in2="BackgroundImageFix" result="effect1_dropShadow"/>
<feBlend mode="normal" in="SourceGraphic" in2="effect1_dropShadow" result="shape"/>
</filter>
<filter id="filter1_d" x="18" y="11.4053" width="45" height="48.9023" filterUnits="userSpaceOnUse" color-interpolation-filters="sRGB">
<feFlood flood-opacity="0" result="BackgroundImageFix"/>
<feColorMatrix in="SourceAlpha" type="matrix" values="0 0 0 0 0 0 0 0 0 0 0 0 0 0 0 0 0 0 127 0"/>
<feOffset dy="3"/>
<feGaussianBlur stdDeviation="6"/>
<feColorMatrix type="matrix" values="0 0 0 0 1 0 0 0 0 0.419608 0 0 0 0 0.419608 0 0 0 0.51 0"/>
<feBlend mode="normal" in2="BackgroundImageFix" result="effect1_dropShadow"/>
<feBlend mode="normal" in="SourceGraphic" in2="effect1_dropShadow" result="shape"/>
</filter>
</defs>
</svg>
