<svg width="82" height="82" viewBox="0 0 82 82" fill="none" xmlns="http://www.w3.org/2000/svg">
<g opacity="0.05" filter="url(#filter0_d)">
<circle cx="41" cy="38" r="29" fill="#FF6B6B"/>
</g>
<circle cx="64" cy="19" r="8" fill="#FF6B6B"/>
<path d="M64.5 18.9713L66.4116 17.0596C66.5577 16.9135 66.7942 16.9135 66.9403 17.0596C66.9403 17.0596 66.9403 17.0596 66.9403 17.0596L66.905 17.095C67.0317 17.2216 67.0317 17.4264 66.905 17.553L64.5 18.9713ZM64.5 18.9713L62.5884 17.0596L62.5884 17.0596C62.4422 16.9135 62.2059 16.9135 62.0597 17.0596L64.5 18.9713ZM64.5 20.0288L66.4116 21.9404C66.4845 22.0134 66.5803 22.05 66.676 22.05C66.7716 22.05 66.8674 22.0134 66.9403 21.9405L64.5 20.0288ZM64.5 20.0288L62.5884 21.9404C62.5155 22.0134 62.4197 22.05 62.324 22.05C62.2284 22.05 62.1325 22.0134 62.0597 21.9404M64.5 20.0288L62.0597 21.9404M62.0597 21.9404C61.9134 21.7943 61.9134 21.5578 62.0597 21.4117C62.0597 21.4117 62.0597 21.4117 62.0597 21.4117L63.9712 19.5M62.0597 21.9404L63.9712 19.5M63.9712 19.5L62.0597 17.5884C62.0597 17.5884 62.0597 17.5884 62.0597 17.5884C61.9134 17.4422 61.9134 17.2058 62.0597 17.0596L63.9712 19.5ZM65.0288 19.5L66.9403 17.5884L66.9403 21.9404C67.0866 21.7943 67.0866 21.5579 66.9403 21.4117C66.9403 21.4117 66.9403 21.4117 66.9403 21.4117L65.0288 19.5Z" fill="white" stroke="white" stroke-width="0.1"/>
<g filter="url(#filter1_d)">
<path d="M28.7324 51H42.0137C42.4183 51 42.7461 50.6721 42.7461 50.2676V49.4863C42.7461 48.6772 42.0904 48.0215 41.2813 48.0215V47.1458C41.2813 45.9863 40.3379 45.043 39.1784 45.043H31.5677C30.4082 45.043 29.4648 45.9863 29.4648 47.1458V48.0215C28.6557 48.0215 28 48.6772 28 49.4863V50.2676C28 50.6719 28.3281 51 28.7324 51Z" fill="#FF6B6B"/>
<path d="M37.1667 42.1301C37.6535 42.7761 38.5721 42.9052 39.2181 42.4183C39.8643 41.9315 39.9932 41.0129 39.5065 40.3667L35.0986 34.5175C34.6117 33.8713 33.6933 33.7423 33.0472 34.2291C32.401 34.716 32.2719 35.6344 32.7588 36.2806L37.1667 42.1301Z" fill="#FF6B6B"/>
<path d="M47.6955 34.1959C48.1825 34.8419 49.1009 34.971 49.7471 34.4841C50.3931 33.9973 50.5222 33.0789 50.0353 32.4327L45.6274 26.5835C45.1406 25.9373 44.222 25.8081 43.576 26.2951C42.93 26.782 42.8009 27.7004 43.2878 28.3466L47.6955 34.1959Z" fill="#FF6B6B"/>
<path d="M44.4826 38.4512C45.5652 37.6354 46.3779 36.6224 46.8862 35.5558L41.7574 28.7496C40.592 28.9444 39.3943 29.4462 38.3115 30.2622C37.2289 31.0779 36.4162 32.0909 35.9079 33.1573L41.0368 39.9639C42.2022 39.7692 43.3998 39.2671 44.4826 38.4512Z" fill="#FF6B6B"/>
<path d="M46.4603 38.6419C46.1193 38.9894 45.7601 39.3226 45.3642 39.6211C44.968 39.9195 44.5486 40.1729 44.1208 40.4051L45.0758 41.6725L47.4155 39.9095L46.4603 38.6419Z" fill="#FF6B6B"/>
<path d="M48.2971 41.0793L45.9574 42.8423L50.3652 48.6917C50.8522 49.3379 51.7706 49.4669 52.4166 48.9801C53.0628 48.4932 53.1918 47.5748 52.705 46.9286L48.2971 41.0793Z" fill="#FF6B6B"/>
</g>
<defs>
<filter id="filter0_d" x="0" y="0" width="82" height="82" filterUnits="userSpaceOnUse" color-interpolation-filters="sRGB">
<feFlood flood-opacity="0" result="BackgroundImageFix"/>
<feColorMatrix in="SourceAlpha" type="matrix" values="0 0 0 0 0 0 0 0 0 0 0 0 0 0 0 0 0 0 127 0"/>
<feOffset dy="3"/>
<feGaussianBlur stdDeviation="6"/>
<feColorMatrix type="matrix" values="0 0 0 0 1 0 0 0 0 0.419608 0 0 0 0 0.419608 0 0 0 0.51 0"/>
<feBlend mode="normal" in2="BackgroundImageFix" result="effect1_dropShadow"/>
<feBlend mode="normal" in="SourceGraphic" in2="effect1_dropShadow" result="shape"/>
</filter>
<filter id="filter1_d" x="16" y="17" width="49" height="49" filterUnits="userSpaceOnUse" color-interpolation-filters="sRGB">
<feFlood flood-opacity="0" result="BackgroundImageFix"/>
<feColorMatrix in="SourceAlpha" type="matrix" values="0 0 0 0 0 0 0 0 0 0 0 0 0 0 0 0 0 0 127 0"/>
<feOffset dy="3"/>
<feGaussianBlur stdDeviation="6"/>
<feColorMatrix type="matrix" values="0 0 0 0 1 0 0 0 0 0.419608 0 0 0 0 0.419608 0 0 0 0.51 0"/>
<feBlend mode="normal" in2="BackgroundImageFix" result="effect1_dropShadow"/>
<feBlend mode="normal" in="SourceGraphic" in2="effect1_dropShadow" result="shape"/>
</filter>
</defs>
</svg>
