<svg width="82" height="82" viewBox="0 0 82 82" fill="none" xmlns="http://www.w3.org/2000/svg">
<g opacity="0.05" filter="url(#filter0_d)">
<circle cx="41" cy="38" r="29" fill="#FF6B6B"/>
</g>
<circle cx="64" cy="19" r="8" fill="#FF6B6B"/>
<path d="M64.5 18.9713L66.4116 17.0596C66.5577 16.9135 66.7942 16.9135 66.9403 17.0596C66.9403 17.0596 66.9403 17.0596 66.9403 17.0596L66.905 17.095C67.0317 17.2216 67.0317 17.4264 66.905 17.553L64.5 18.9713ZM64.5 18.9713L62.5884 17.0596L62.5884 17.0596C62.4422 16.9135 62.2059 16.9135 62.0597 17.0596L64.5 18.9713ZM64.5 20.0288L66.4116 21.9404C66.4845 22.0134 66.5803 22.05 66.676 22.05C66.7716 22.05 66.8674 22.0134 66.9403 21.9405L64.5 20.0288ZM64.5 20.0288L62.5884 21.9404C62.5155 22.0134 62.4197 22.05 62.324 22.05C62.2284 22.05 62.1325 22.0134 62.0597 21.9404M64.5 20.0288L62.0597 21.9404M62.0597 21.9404C61.9134 21.7943 61.9134 21.5578 62.0597 21.4117C62.0597 21.4117 62.0597 21.4117 62.0597 21.4117L63.9712 19.5M62.0597 21.9404L63.9712 19.5M63.9712 19.5L62.0597 17.5884C62.0597 17.5884 62.0597 17.5884 62.0597 17.5884C61.9134 17.4422 61.9134 17.2058 62.0597 17.0596L63.9712 19.5ZM65.0288 19.5L66.9403 17.5884L66.9403 21.9404C67.0866 21.7943 67.0866 21.5579 66.9403 21.4117C66.9403 21.4117 66.9403 21.4117 66.9403 21.4117L65.0288 19.5Z" fill="white" stroke="white" stroke-width="0.1"/>
<g filter="url(#filter1_d)">
<path d="M50.5546 24.0368L47.4227 20.854V23.0327C47.4227 23.5843 47.8693 24.0317 48.4209 24.0327L50.5546 24.0368Z" fill="#FF6B6B"/>
<path d="M51 25.5616H46.6676C46.2519 25.5608 45.9152 25.2182 45.9152 24.7955V20.4053H33.3292C32.9127 20.4053 32.5752 20.7483 32.5752 21.1713V34.8765C33.3601 34.5432 34.2206 34.3588 35.1229 34.3588C35.4673 34.3588 35.8054 34.3857 36.1357 34.4375C36.111 34.3618 36.0972 34.2812 36.0972 34.1972C36.0972 33.7742 36.4347 33.4312 36.8512 33.4312H45.9303C46.3466 33.4312 46.6841 33.7742 46.6841 34.1972C46.6841 34.6203 46.3466 34.9633 45.9303 34.9633H37.8665C40.1574 36.0259 41.7537 38.3756 41.7537 41.0974C41.7537 42.15 41.5147 43.147 41.0893 44.0354H50.2462C50.6625 44.0354 51 43.6924 51 43.2693V25.5616ZM43.2165 28.1705C43.2165 28.5938 42.879 28.9366 42.4627 28.9366H36.8512C36.4347 28.9366 36.0972 28.5938 36.0972 28.1705C36.0972 27.7475 36.4347 27.4045 36.8512 27.4045H42.4627C42.879 27.4045 43.2165 27.7475 43.2165 28.1705ZM45.9303 31.95H36.8512C36.4347 31.95 36.0972 31.607 36.0972 31.184C36.0972 30.7607 36.4347 30.4177 36.8512 30.4177H45.9303C46.3466 30.4177 46.6841 30.7607 46.6841 31.184C46.6841 31.607 46.3466 31.95 45.9303 31.95Z" fill="#FF6B6B"/>
<path d="M40.2459 41.0974C40.2459 38.2267 37.9478 35.8911 35.1229 35.8911C32.2981 35.8911 30 38.2267 30 41.0974C30 43.9682 32.2981 46.3037 35.1229 46.3037C37.9478 46.3037 40.2459 43.9682 40.2459 41.0974ZM37.2784 43.3363C37.1312 43.4859 36.9383 43.5608 36.7454 43.5608C36.5526 43.5608 36.3595 43.4859 36.2123 43.3363L35.1229 42.2292L34.0336 43.3363C33.8864 43.4859 33.6935 43.5608 33.5006 43.5608C33.3076 43.5608 33.1147 43.4861 32.9675 43.3363C32.6732 43.0372 32.6732 42.5521 32.9675 42.2529L34.0569 41.1458L32.9675 40.0387C32.6732 39.7396 32.6732 39.2545 32.9675 38.9554C33.2619 38.6562 33.7392 38.6562 34.0336 38.9554L35.1231 40.0625L36.2125 38.9554C36.5069 38.6562 36.9842 38.656 37.2785 38.9554C37.5729 39.2545 37.5729 39.7396 37.2785 40.0387L36.1892 41.1458L37.2785 42.2529C37.5727 42.5521 37.5727 43.0372 37.2784 43.3363Z" fill="#FF6B6B"/>
</g>
<defs>
<filter id="filter0_d" x="0" y="0" width="82" height="82" filterUnits="userSpaceOnUse" color-interpolation-filters="sRGB">
<feFlood flood-opacity="0" result="BackgroundImageFix"/>
<feColorMatrix in="SourceAlpha" type="matrix" values="0 0 0 0 0 0 0 0 0 0 0 0 0 0 0 0 0 0 127 0"/>
<feOffset dy="3"/>
<feGaussianBlur stdDeviation="6"/>
<feColorMatrix type="matrix" values="0 0 0 0 1 0 0 0 0 0.419608 0 0 0 0 0.419608 0 0 0 0.51 0"/>
<feBlend mode="normal" in2="BackgroundImageFix" result="effect1_dropShadow"/>
<feBlend mode="normal" in="SourceGraphic" in2="effect1_dropShadow" result="shape"/>
</filter>
<filter id="filter1_d" x="18" y="11.4053" width="45" height="49.8984" filterUnits="userSpaceOnUse" color-interpolation-filters="sRGB">
<feFlood flood-opacity="0" result="BackgroundImageFix"/>
<feColorMatrix in="SourceAlpha" type="matrix" values="0 0 0 0 0 0 0 0 0 0 0 0 0 0 0 0 0 0 127 0"/>
<feOffset dy="3"/>
<feGaussianBlur stdDeviation="6"/>
<feColorMatrix type="matrix" values="0 0 0 0 1 0 0 0 0 0.419608 0 0 0 0 0.419608 0 0 0 0.51 0"/>
<feBlend mode="normal" in2="BackgroundImageFix" result="effect1_dropShadow"/>
<feBlend mode="normal" in="SourceGraphic" in2="effect1_dropShadow" result="shape"/>
</filter>
</defs>
</svg>
