<svg width="81" height="82" viewBox="0 0 81 82" fill="none" xmlns="http://www.w3.org/2000/svg">
<g opacity="0.05" filter="url(#filter0_d)">
<ellipse cx="40.5" cy="38" rx="28.5" ry="29" fill="#FF6B6B"/>
</g>
<circle cx="64" cy="19" r="8" fill="#FF6B6B"/>
<path d="M63.5 18.9713L65.4116 17.0596C65.5577 16.9135 65.7942 16.9135 65.9403 17.0596C65.9403 17.0596 65.9403 17.0596 65.9403 17.0596L65.905 17.095C66.0317 17.2216 66.0317 17.4264 65.905 17.553L63.5 18.9713ZM63.5 18.9713L61.5884 17.0596L61.5884 17.0596C61.4422 16.9135 61.2059 16.9135 61.0597 17.0596L63.5 18.9713ZM63.5 20.0288L65.4116 21.9404C65.4845 22.0134 65.5803 22.05 65.676 22.05C65.7716 22.05 65.8674 22.0134 65.9403 21.9405L63.5 20.0288ZM63.5 20.0288L61.5884 21.9404C61.5155 22.0134 61.4197 22.05 61.324 22.05C61.2284 22.05 61.1325 22.0134 61.0597 21.9404M63.5 20.0288L61.0597 21.9404M61.0597 21.9404C60.9134 21.7943 60.9134 21.5578 61.0597 21.4117C61.0597 21.4117 61.0597 21.4117 61.0597 21.4117L62.9712 19.5M61.0597 21.9404L62.9712 19.5M62.9712 19.5L61.0597 17.5884C61.0597 17.5884 61.0597 17.5884 61.0597 17.5884C60.9134 17.4422 60.9134 17.2058 61.0597 17.0596L62.9712 19.5ZM64.0288 19.5L65.9403 17.5884L65.9403 21.9404C66.0866 21.7943 66.0866 21.5579 65.9403 21.4117C65.9403 21.4117 65.9403 21.4117 65.9403 21.4117L64.0288 19.5Z" fill="white" stroke="white" stroke-width="0.1"/>
<g filter="url(#filter1_d)">
<path d="M34.7523 43.227C34.7523 42.9074 34.4658 42.6482 34.1121 42.6482C33.7583 42.6482 33.4718 42.9074 33.4718 43.227C33.4718 43.5467 33.7583 43.8058 34.1121 43.8058C34.4658 43.8058 34.7523 43.5467 34.7523 43.227Z" fill="#FF6B6B"/>
<path d="M34.1121 38.5382C33.759 38.5382 33.4718 38.7977 33.4718 39.1171C33.4718 39.4361 33.759 39.6959 34.1121 39.6959C34.4651 39.6959 34.7526 39.4361 34.7526 39.1171C34.7526 38.7977 34.4651 38.5382 34.1121 38.5382Z" fill="#FF6B6B"/>
<path d="M34.7523 35.0071C34.7523 34.6874 34.4658 34.4283 34.1121 34.4283C33.7583 34.4283 33.4718 34.6874 33.4718 35.0071C33.4718 35.3267 33.7583 35.586 34.1121 35.586C34.4658 35.586 34.7523 35.3267 34.7523 35.0071Z" fill="#FF6B6B"/>
<path d="M48.0484 26C44.7614 26 42.0968 28.6087 42.097 31.8267C42.097 35.0448 44.7616 37.6535 48.0486 37.6535C51.3356 37.6535 54 35.0448 54 31.8267C53.9965 28.6103 51.334 26.0037 48.0484 26ZM48.0208 31.41C49.0433 31.4102 49.8985 32.1708 49.9961 33.1672C50.0759 33.9821 49.6282 34.7363 48.9135 35.0884C48.63 35.2281 48.3981 35.489 48.3981 35.8051C48.3981 36.0336 48.209 36.2188 47.9755 36.2188C47.742 36.2188 47.5529 36.0336 47.5529 35.8051C47.5529 35.4742 47.3172 35.1982 47.0293 35.0354C46.4275 34.695 46.0372 34.0604 46.0363 33.3531C46.0363 33.1245 46.2254 32.9394 46.4589 32.9394C46.6921 32.9394 46.8815 33.1245 46.8815 33.3531C46.8815 33.9691 47.3916 34.4685 48.0208 34.4685C48.65 34.4685 49.1601 33.9691 49.1601 33.3531C49.1601 32.7369 48.65 32.2375 48.0208 32.2375C47.0159 32.2375 46.1698 31.5021 46.0504 30.5255C45.9523 29.7222 46.3712 28.9641 47.0662 28.5911C47.3357 28.4465 47.5529 28.1908 47.5529 27.8849C47.5529 27.6566 47.742 27.4712 47.9755 27.4712C48.209 27.4712 48.3981 27.6566 48.3981 27.8849C48.3981 28.1764 48.6109 28.4179 48.875 28.5414C49.5517 28.8579 50.0043 29.5324 50.0053 30.2946C50.0053 30.5232 49.8162 30.7084 49.5827 30.7084C49.3494 30.7084 49.1601 30.5232 49.1601 30.2946C49.1594 29.7072 48.6946 29.2247 48.1031 29.1829C48.0606 29.1799 48.0181 29.1852 47.9755 29.1852C47.9494 29.1852 47.9232 29.1841 47.8972 29.1869C47.3058 29.2499 46.8605 29.7501 46.8829 30.3366C46.9056 30.9358 47.4083 31.41 48.021 31.41H48.0208Z" fill="#FF6B6B"/>
<path d="M41.2277 51.7518C40.524 51.0675 40.1281 50.1366 40.1271 49.1655V48.508C40.1271 47.9557 39.6794 47.508 39.1271 47.508H27C26.4477 47.508 26 47.9557 26 48.508V49.1724C26.0071 50.7345 27.3018 51.9979 28.8974 52H41.1344C41.252 52 41.3083 51.8374 41.2277 51.7518Z" fill="#FF6B6B"/>
<path d="M42.6445 35.8408C42.4375 35.5691 42.124 35.3913 41.7824 35.3913H37.2123C36.9788 35.3913 36.7897 35.2062 36.7897 34.9776C36.7897 34.7492 36.9788 34.5638 37.2123 34.5638H40.2908C41.024 34.5638 41.518 33.7893 41.375 33.0701C41.292 32.6525 41.2505 32.2268 41.2518 31.7988C41.2519 31.7492 41.2526 31.6995 41.2539 31.6499C41.2699 31.0146 40.7995 30.4265 40.1639 30.4265H31.0171C30.4675 30.4265 30.0209 30.87 30.0171 31.4196L29.9191 45.6736C29.9153 46.2286 30.3641 46.6805 30.9191 46.6805H40.5714C40.679 46.6763 40.7832 46.7161 40.8594 46.7904C40.9355 46.8647 40.9763 46.9668 40.9723 47.0721V49.1659C40.9801 50.7315 42.2772 51.9972 43.8763 52H43.8858C45.4788 51.9968 46.7681 50.7318 46.7681 49.1724V39.1942C46.7681 38.7122 46.4213 38.3064 45.9616 38.1615C44.6389 37.7448 43.4783 36.9345 42.6445 35.8408ZM34.1121 44.6335C33.293 44.6335 32.6266 44.0025 32.6266 43.227C32.6266 42.4517 33.293 41.8207 34.1121 41.8207C34.9311 41.8207 35.5978 42.4517 35.5978 43.227C35.5978 44.0025 34.9313 44.6335 34.1121 44.6335ZM34.1121 40.5234C33.293 40.5234 32.6266 39.8926 32.6266 39.1171C32.6266 38.3415 33.293 37.7108 34.1121 37.7108C34.9311 37.7108 35.5978 38.3415 35.5978 39.1171C35.5978 39.8924 34.9313 40.5234 34.1121 40.5234ZM34.1121 36.4134C33.293 36.4134 32.6266 35.7824 32.6266 35.0071C32.6266 34.2316 33.293 33.6006 34.1121 33.6006C34.9311 33.6006 35.5978 34.2314 35.5978 35.0069C35.5978 35.7824 34.9313 36.4134 34.1121 36.4134ZM43.6513 43.6661H37.2123C36.9788 43.6661 36.7897 43.4809 36.7897 43.2524C36.7897 43.024 36.9788 42.8386 37.2123 42.8386H43.6513C43.8848 42.8386 44.0739 43.024 44.0739 43.2524C44.0739 43.4809 43.8848 43.6661 43.6513 43.6661ZM44.0739 39.115C44.0739 39.3436 43.8848 39.5287 43.6513 39.5287H37.2123C36.9788 39.5287 36.7897 39.3436 36.7897 39.115C36.7897 38.8866 36.9788 38.7012 37.2123 38.7012H43.6513C43.8848 38.7012 44.0739 38.8866 44.0739 39.115Z" fill="#FF6B6B"/>
</g>
<defs>
<filter id="filter0_d" x="0" y="0" width="81" height="82" filterUnits="userSpaceOnUse" color-interpolation-filters="sRGB">
<feFlood flood-opacity="0" result="BackgroundImageFix"/>
<feColorMatrix in="SourceAlpha" type="matrix" values="0 0 0 0 0 0 0 0 0 0 0 0 0 0 0 0 0 0 127 0"/>
<feOffset dy="3"/>
<feGaussianBlur stdDeviation="6"/>
<feColorMatrix type="matrix" values="0 0 0 0 1 0 0 0 0 0.419608 0 0 0 0 0.419608 0 0 0 0.51 0"/>
<feBlend mode="normal" in2="BackgroundImageFix" result="effect1_dropShadow"/>
<feBlend mode="normal" in="SourceGraphic" in2="effect1_dropShadow" result="shape"/>
</filter>
<filter id="filter1_d" x="14" y="17" width="52" height="50" filterUnits="userSpaceOnUse" color-interpolation-filters="sRGB">
<feFlood flood-opacity="0" result="BackgroundImageFix"/>
<feColorMatrix in="SourceAlpha" type="matrix" values="0 0 0 0 0 0 0 0 0 0 0 0 0 0 0 0 0 0 127 0"/>
<feOffset dy="3"/>
<feGaussianBlur stdDeviation="6"/>
<feColorMatrix type="matrix" values="0 0 0 0 1 0 0 0 0 0.419608 0 0 0 0 0.419608 0 0 0 0.51 0"/>
<feBlend mode="normal" in2="BackgroundImageFix" result="effect1_dropShadow"/>
<feBlend mode="normal" in="SourceGraphic" in2="effect1_dropShadow" result="shape"/>
</filter>
</defs>
</svg>
