<svg width="22" height="22" viewBox="0 0 22 22" fill="none" xmlns="http://www.w3.org/2000/svg">
<path d="M18.7773 0H3.22266C1.44566 0 0 1.44566 0 3.22266V18.7773C0 20.5543 1.44566 22 3.22266 22H8.35547C9.46004 22 10.3555 21.1046 10.3555 20V15.3613C10.3555 14.7087 9.82643 14.1797 9.17383 14.1797C8.52123 14.1797 7.99219 13.6506 7.99219 12.998V10.8496C7.99219 10.197 8.52123 9.66797 9.17383 9.66797C9.82643 9.66797 10.3555 9.13893 10.3555 8.48633V7.08984C10.3555 4.95752 12.0903 3.22266 14.2227 3.22266H15.875C16.9796 3.22266 17.875 4.11809 17.875 5.22266V6.23047C17.875 7.06105 17.2017 7.73438 16.3711 7.73438H15.834C15.3 7.73438 14.8672 8.16722 14.8672 8.70117C14.8672 9.23512 15.3 9.66797 15.834 9.66797H16.286C17.1813 9.66797 17.8528 10.4871 17.6772 11.365L17.3128 13.187C17.1974 13.7642 16.6906 14.1797 16.102 14.1797C15.42 14.1797 14.8672 14.7325 14.8672 15.4145V20C14.8672 21.1046 15.7626 22 16.8672 22H18.7773C20.5543 22 22 20.5543 22 18.7773V3.22266C22 1.44566 20.5543 0 18.7773 0Z" fill="url(#paint0_linear)"/>
<path d="M16.213 12.1134C16.3326 11.5152 15.8751 10.957 15.265 10.957H14.8693C14.1562 10.957 13.5781 10.379 13.5781 9.66586V7.94922C13.5781 7.11863 14.2514 6.44531 15.082 6.44531H15.6191C16.1531 6.44531 16.5859 6.01246 16.5859 5.47852C16.5859 4.94457 16.1531 4.51172 15.6191 4.51172H14.2227C12.801 4.51172 11.6445 5.66818 11.6445 7.08984V9.77539C11.6445 10.428 11.1155 10.957 10.4629 10.957H10.248C9.7141 10.957 9.28125 11.3899 9.28125 11.9238C9.28125 12.4578 9.7141 12.8906 10.248 12.8906H10.4629C11.1155 12.8906 11.6445 13.4197 11.6445 14.0723V21.0332C11.6445 21.5672 12.0774 22 12.6113 22C13.1453 22 13.5781 21.5672 13.5781 21.0332V14.2531C13.5781 13.5006 14.1881 12.8906 14.9406 12.8906H15.265C15.7258 12.8906 16.1226 12.5653 16.213 12.1134Z" fill="url(#paint1_linear)"/>
<defs>
<linearGradient id="paint0_linear" x1="10.6443" y1="22" x2="9.12024" y2="0.102262" gradientUnits="userSpaceOnUse">
<stop stop-color="#FFD408"/>
<stop offset="1" stop-color="#FFDF46"/>
</linearGradient>
<linearGradient id="paint1_linear" x1="10.6443" y1="22" x2="9.12024" y2="0.102262" gradientUnits="userSpaceOnUse">
<stop stop-color="#FFD408"/>
<stop offset="1" stop-color="#FFDF46"/>
</linearGradient>
</defs>
</svg>
