<svg width="87" height="57" viewBox="0 0 87 57" fill="none" xmlns="http://www.w3.org/2000/svg">
<path d="M86.5128 47.6887C85.8727 46.1521 84.6513 44.9307 83.1147 44.2905V22.2512C83.4084 21.8116 83.6068 21.3156 83.6972 20.7949C83.6904 19.8056 83.1272 18.9045 82.2409 18.4647L42.8225 0.794415C42.2091 0.498216 41.4942 0.498216 40.8808 0.794415L1.46241 18.4647C0.521853 18.8421 -0.0667521 19.7841 0.00606507 20.7949C0.0149776 21.7965 0.689674 22.6695 1.65659 22.9308L15.152 27.5911V45.0672C15.152 45.8312 15.5118 46.5507 16.1229 47.009C16.7679 47.4833 17.6109 47.5933 18.356 47.3003C33.4801 41.6682 50.1261 41.6682 65.2502 47.3003L66.124 47.4945C66.6171 47.4806 67.093 47.3107 67.4833 47.009C68.158 46.5966 68.5642 45.858 68.5513 45.0672V27.494L78.2602 24.2901V44.2905C75.043 45.631 73.5216 49.3259 74.8621 52.5431C76.2026 55.7604 79.8975 57.2817 83.1147 55.9413C86.3319 54.6006 87.8533 50.9059 86.5128 47.6887Z" fill="#FFD408"/>
</svg>
