<svg width="60" height="60" viewBox="0 0 60 60" fill="none" xmlns="http://www.w3.org/2000/svg">
<path d="M58.2422 48.2424H44.1015V59.9999H58.2422C59.213 59.9999 60 59.2128 60 58.2421V50.0002C60 49.0294 59.213 48.2424 58.2422 48.2424Z" fill="url(#paint0_linear)"/>
<path d="M0 40.5861V58.2422C0 59.213 0.787031 60 1.75781 60H15.8985V38.8283H1.75781C0.787031 38.8283 0 39.6152 0 40.5861Z" fill="url(#paint1_linear)"/>
<path d="M45.4683 4.10159C45.4683 3.1308 44.6813 2.34376 43.7105 2.34376H38.437V1.75782C38.437 0.787036 37.65 0 36.6792 0H23.3208C22.35 0 21.563 0.787036 21.563 1.75782V2.34376H16.2895C15.3187 2.34376 14.5317 3.1308 14.5317 4.10159V5.27347C14.5317 9.47361 17.9488 12.8907 22.1489 12.8907H22.8387C24.0322 14.803 25.9688 16.205 28.2422 16.6888V20.9671H26.4844C24.5427 20.9671 22.9688 22.541 22.9688 24.4827V25.8985H37.0312V24.4827C37.0312 22.541 35.4573 20.9671 33.5156 20.9671H31.7578V16.6888C34.0311 16.205 35.9678 14.803 37.1613 12.8907H37.8511C42.0512 12.8907 45.4683 9.47361 45.4683 5.27347V4.10159ZM18.0891 5.85941H21.563V8.4372C21.563 8.74201 21.5801 9.04294 21.6118 9.33943C19.7953 9.1006 18.3491 7.66915 18.0891 5.85941ZM38.3882 9.33931C38.4198 9.04271 38.437 8.74189 38.437 8.43708V5.85941H41.9108C41.6509 7.66915 40.2047 9.1006 38.3882 9.33931Z" fill="url(#paint2_linear)"/>
<path d="M38.8281 29.4141H21.1719C20.2011 29.4141 19.4141 30.2012 19.4141 31.1719V59.9999H40.5859V31.1719C40.5859 30.2012 39.7989 29.4141 38.8281 29.4141ZM31.7578 45.3132C31.7578 46.2839 30.9708 47.071 30 47.071C29.0292 47.071 28.2422 46.2839 28.2422 45.3132V41.337C28.2422 40.3662 29.0292 39.5791 30 39.5791C30.9708 39.5791 31.7578 40.3662 31.7578 41.337V45.3132Z" fill="url(#paint3_linear)"/>
<defs>
<linearGradient id="paint0_linear" x1="29.0299" y1="60" x2="24.8734" y2="0.278897" gradientUnits="userSpaceOnUse">
<stop stop-color="#FFD408"/>
<stop offset="1" stop-color="#FFDF46"/>
</linearGradient>
<linearGradient id="paint1_linear" x1="29.0299" y1="60" x2="24.8734" y2="0.278897" gradientUnits="userSpaceOnUse">
<stop stop-color="#FFD408"/>
<stop offset="1" stop-color="#FFDF46"/>
</linearGradient>
<linearGradient id="paint2_linear" x1="29.0299" y1="60" x2="24.8734" y2="0.278897" gradientUnits="userSpaceOnUse">
<stop stop-color="#FFD408"/>
<stop offset="1" stop-color="#FFDF46"/>
</linearGradient>
<linearGradient id="paint3_linear" x1="29.0299" y1="60" x2="24.8734" y2="0.278897" gradientUnits="userSpaceOnUse">
<stop stop-color="#FFD408"/>
<stop offset="1" stop-color="#FFDF46"/>
</linearGradient>
</defs>
</svg>
