<svg width="71" height="70" viewBox="0 0 71 70" fill="none" xmlns="http://www.w3.org/2000/svg">
<path d="M67.1964 20H65.9286V58.75C65.9267 60.407 65.2582 61.9957 64.0698 63.1674C62.8813 64.3391 61.27 64.9981 59.5893 65H58.3214V66.25C58.3226 67.2442 58.7237 68.1974 59.4368 68.9004C60.1498 69.6034 61.1166 69.9988 62.125 70H67.1964C68.2048 69.9988 69.1716 69.6034 69.8847 68.9004C70.5977 68.1974 70.9988 67.2442 71 66.25V23.75C70.9988 22.7558 70.5977 21.8026 69.8847 21.0996C69.1716 20.3966 68.2048 20.0012 67.1964 20Z" fill="url(#paint0_linear)"/>
<path d="M55.7857 31.25C55.7845 30.2558 55.3834 29.3026 54.6704 28.5996C53.9573 27.8966 52.9906 27.5012 51.9821 27.5H24.0893C23.753 27.5 23.4305 27.3683 23.1928 27.1339C22.955 26.8995 22.8214 26.5815 22.8214 26.25V16.25C22.8203 15.2558 22.4191 14.3026 21.7061 13.5996C20.993 12.8966 20.0263 12.5012 19.0179 12.5H3.80357C2.79516 12.5012 1.82839 12.8966 1.11534 13.5996C0.402284 14.3026 0.00117442 15.2558 0 16.25V66.25C0.00117442 67.2442 0.402284 68.1974 1.11534 68.9004C1.82839 69.6034 2.79516 69.9988 3.80357 70H57.0566C56.2304 68.9196 55.7842 67.603 55.7857 66.25V31.25Z" fill="url(#paint1_linear)"/>
<path d="M25.3571 16.25V25H51.9821C53.6628 25.0019 55.2742 25.6609 56.4626 26.8326C57.6511 28.0043 58.3195 29.593 58.3214 31.25V62.5H59.5893C60.5977 62.4989 61.5645 62.1034 62.2776 61.4004C62.9906 60.6974 63.3917 59.7442 63.3929 58.75V12.5H57.0536C55.3729 12.4981 53.7615 11.8391 52.5731 10.6674C51.3847 9.49566 50.7162 7.90703 50.7143 6.25V0H19.0179C18.0094 0.00111661 17.0426 0.396563 16.3296 1.09958C15.6165 1.8026 15.2154 2.75578 15.2143 3.75V10H19.0179C20.6986 10.0019 22.3099 10.6609 23.4983 11.8326C24.6868 13.0043 25.3553 14.593 25.3571 16.25ZM34.2321 20H31.6964C31.3602 20 31.0377 19.8683 30.7999 19.6339C30.5621 19.3995 30.4286 19.0815 30.4286 18.75C30.4286 18.4185 30.5621 18.1005 30.7999 17.8661C31.0377 17.6317 31.3602 17.5 31.6964 17.5H34.2321C34.5684 17.5 34.8909 17.6317 35.1287 17.8661C35.3664 18.1005 35.5 18.4185 35.5 18.75C35.5 19.0815 35.3664 19.3995 35.1287 19.6339C34.8909 19.8683 34.5684 20 34.2321 20ZM57.0536 17.5C57.3898 17.5 57.7123 17.6317 57.9501 17.8661C58.1879 18.1005 58.3214 18.4185 58.3214 18.75C58.3214 19.0815 58.1879 19.3995 57.9501 19.6339C57.7123 19.8683 57.3898 20 57.0536 20H39.3036C38.9673 20 38.6448 19.8683 38.4071 19.6339C38.1693 19.3995 38.0357 19.0815 38.0357 18.75C38.0357 18.4185 38.1693 18.1005 38.4071 17.8661C38.6448 17.6317 38.9673 17.5 39.3036 17.5H57.0536ZM30.4286 10H39.3036C39.6398 10 39.9623 10.1317 40.2001 10.3661C40.4379 10.6005 40.5714 10.9185 40.5714 11.25C40.5714 11.5815 40.4379 11.8995 40.2001 12.1339C39.9623 12.3683 39.6398 12.5 39.3036 12.5H30.4286C30.0923 12.5 29.7698 12.3683 29.5321 12.1339C29.2943 11.8995 29.1607 11.5815 29.1607 11.25C29.1607 10.9185 29.2943 10.6005 29.5321 10.3661C29.7698 10.1317 30.0923 10 30.4286 10Z" fill="url(#paint2_linear)"/>
<path d="M57.0536 10H61.6L53.25 1.76766V6.25C53.2511 7.24422 53.6522 8.1974 54.3653 8.90042C55.0784 9.60344 56.0452 9.99888 57.0536 10Z" fill="url(#paint3_linear)"/>
<defs>
<linearGradient id="paint0_linear" x1="34.352" y1="70" x2="29.5704" y2="0.315984" gradientUnits="userSpaceOnUse">
<stop stop-color="#FFD408"/>
<stop offset="1" stop-color="#FFDF46"/>
</linearGradient>
<linearGradient id="paint1_linear" x1="34.352" y1="70" x2="29.5704" y2="0.315984" gradientUnits="userSpaceOnUse">
<stop stop-color="#FFD408"/>
<stop offset="1" stop-color="#FFDF46"/>
</linearGradient>
<linearGradient id="paint2_linear" x1="34.352" y1="70" x2="29.5704" y2="0.315984" gradientUnits="userSpaceOnUse">
<stop stop-color="#FFD408"/>
<stop offset="1" stop-color="#FFDF46"/>
</linearGradient>
<linearGradient id="paint3_linear" x1="34.352" y1="70" x2="29.5704" y2="0.315984" gradientUnits="userSpaceOnUse">
<stop stop-color="#FFD408"/>
<stop offset="1" stop-color="#FFDF46"/>
</linearGradient>
</defs>
</svg>
