<svg width="76" height="76" viewBox="0 0 76 76" fill="none" xmlns="http://www.w3.org/2000/svg">
<path d="M60.4141 52.9922C55.7077 52.9922 51.8789 49.1634 51.8789 44.457C51.8789 39.7507 55.7077 35.9219 60.4141 35.9219C65.1204 35.9219 68.9492 39.7507 68.9492 44.457C68.9492 49.1634 65.1204 52.9922 60.4141 52.9922Z" fill="url(#paint0_linear)"/>
<path d="M15.5859 52.9922C10.8796 52.9922 7.05078 49.1634 7.05078 44.457C7.05078 39.7507 10.8796 35.9219 15.5859 35.9219C20.2923 35.9219 24.1211 39.7507 24.1211 44.457C24.1211 49.1634 20.2923 52.9922 15.5859 52.9922Z" fill="url(#paint1_linear)"/>
<path d="M52.8438 5.9375C50.0301 5.9375 47.5006 4.37416 46.2424 1.85784L45.9291 1.23099C45.5519 0.476484 44.7809 0 43.9375 0H32.0625C31.2191 0 30.4481 0.476484 30.0709 1.23084L29.7576 1.85755C28.4994 4.37416 25.9699 5.9375 23.1562 5.9375C21.9266 5.9375 20.9297 6.93441 20.9297 8.16406V20.8699C20.9297 25.8654 22.5059 30.6244 25.4879 34.6324C28.4699 38.6402 32.5754 41.5175 37.3602 42.9529C37.5689 43.0156 37.7845 43.0469 38 43.0469C38.2155 43.0469 38.4311 43.0156 38.6398 42.9529C43.4246 41.5175 47.5301 38.6402 50.5121 34.6324C53.4941 30.6244 55.0703 25.8654 55.0703 20.8699V8.16406C55.0703 6.93441 54.0734 5.9375 52.8438 5.9375ZM45.8721 18.8994L37.4753 27.2962C37.0405 27.7309 36.4706 27.9484 35.9009 27.9484C35.3312 27.9484 34.7612 27.7311 34.3266 27.2962L30.1282 23.0978C29.2587 22.2282 29.2587 20.8185 30.1282 19.949C30.9976 19.0794 32.4075 19.0794 33.277 19.949L35.9011 22.5729L42.7236 15.7506C43.593 14.881 45.0028 14.881 45.8724 15.7506C46.7416 16.6201 46.7416 18.0298 45.8721 18.8994Z" fill="url(#paint2_linear)"/>
<path d="M69.5192 53.7097C67.1735 56.0184 63.9576 57.4453 60.4141 57.4453C56.8649 57.4453 53.6443 56.0139 51.2976 53.6986C50.0519 54.5961 48.9433 55.6724 48.0118 56.8936L49.2352 57.9651C52.9435 61.2131 55.0703 65.8929 55.0703 70.8047V76H73.7734C75.0031 76 76 75.0031 76 73.7734V66.3516C76 61.1539 73.442 56.543 69.5192 53.7097Z" fill="url(#paint3_linear)"/>
<path d="M6.48078 53.7097C2.55802 56.543 0 61.1539 0 66.3516V73.7734C0 75.0031 0.996906 76 2.22656 76H20.9297V70.8047C20.9297 65.8929 23.0565 61.2131 26.7648 57.9651L27.9882 56.8936C27.0567 55.6724 25.9481 54.5961 24.7024 53.6986C22.3557 56.0139 19.1351 57.4453 15.5859 57.4453C12.0424 57.4453 8.82654 56.0184 6.48078 53.7097Z" fill="url(#paint4_linear)"/>
<path d="M46.3012 61.3151C44.2059 63.5016 41.2603 64.8672 38 64.8672C34.7397 64.8672 31.7941 63.5016 29.6988 61.3151C27.0563 63.6295 25.3828 67.0243 25.3828 70.8047V76H50.6172V70.8047C50.6172 67.0243 48.9437 63.6295 46.3012 61.3151Z" fill="url(#paint5_linear)"/>
<path d="M38 60.4141C34.1121 60.4141 30.9492 57.2512 30.9492 53.3633C30.9492 49.4754 34.1121 46.3125 38 46.3125C41.8879 46.3125 45.0508 49.4754 45.0508 53.3633C45.0508 57.2512 41.8879 60.4141 38 60.4141Z" fill="url(#paint6_linear)"/>
<defs>
<linearGradient id="paint0_linear" x1="36.7711" y1="76" x2="31.5063" y2="0.35327" gradientUnits="userSpaceOnUse">
<stop stop-color="#FFD408"/>
<stop offset="1" stop-color="#FFDF46"/>
</linearGradient>
<linearGradient id="paint1_linear" x1="36.7711" y1="76" x2="31.5063" y2="0.35327" gradientUnits="userSpaceOnUse">
<stop stop-color="#FFD408"/>
<stop offset="1" stop-color="#FFDF46"/>
</linearGradient>
<linearGradient id="paint2_linear" x1="36.7711" y1="76" x2="31.5063" y2="0.35327" gradientUnits="userSpaceOnUse">
<stop stop-color="#FFD408"/>
<stop offset="1" stop-color="#FFDF46"/>
</linearGradient>
<linearGradient id="paint3_linear" x1="36.7711" y1="76" x2="31.5063" y2="0.35327" gradientUnits="userSpaceOnUse">
<stop stop-color="#FFD408"/>
<stop offset="1" stop-color="#FFDF46"/>
</linearGradient>
<linearGradient id="paint4_linear" x1="36.7711" y1="76" x2="31.5063" y2="0.35327" gradientUnits="userSpaceOnUse">
<stop stop-color="#FFD408"/>
<stop offset="1" stop-color="#FFDF46"/>
</linearGradient>
<linearGradient id="paint5_linear" x1="36.7711" y1="76" x2="31.5063" y2="0.35327" gradientUnits="userSpaceOnUse">
<stop stop-color="#FFD408"/>
<stop offset="1" stop-color="#FFDF46"/>
</linearGradient>
<linearGradient id="paint6_linear" x1="36.7711" y1="76" x2="31.5063" y2="0.35327" gradientUnits="userSpaceOnUse">
<stop stop-color="#FFD408"/>
<stop offset="1" stop-color="#FFDF46"/>
</linearGradient>
</defs>
</svg>
