<svg width="78" height="70" viewBox="0 0 78 70" fill="none" xmlns="http://www.w3.org/2000/svg">
<path d="M45.2461 53.8853C35.0533 55.623 24.9303 48.3502 23.2063 38.1628C23.0304 37.1237 22.1691 36.3018 21.1152 36.3018H8.55078C7.44621 36.3018 6.55078 37.1973 6.55078 38.3018V63.4348C6.55078 64.5394 7.44621 65.4348 8.55078 65.4348H45.5312C46.6358 65.4348 47.5312 64.5394 47.5312 63.4348V55.7282C47.5312 54.5546 46.4059 53.706 45.2461 53.8853ZM24.2227 58.859C24.2227 59.9635 23.3272 60.859 22.2227 60.859H13.2734C12.1689 60.859 11.2734 59.9635 11.2734 58.859V58.2831C11.2734 57.1785 12.1689 56.2831 13.2734 56.2831H22.2227C23.3272 56.2831 24.2227 57.1785 24.2227 58.2831V58.859Z" fill="url(#paint0_linear)"/>
<path d="M2 0C0.895431 0 0 0.89543 0 2V29.726C0 30.8305 0.89543 31.726 2 31.726H23.0219C23.1033 31.726 23.1713 31.664 23.1867 31.5841C23.273 31.0577 23.3808 30.5366 23.5095 30.0221C23.8582 28.629 22.8793 27.1501 21.4433 27.1501H8.09375C6.98918 27.1501 6.09375 26.2547 6.09375 25.1501V24.5742C6.09375 23.4697 6.98918 22.5742 8.09375 22.5742H26.2814C26.8878 22.5742 27.457 22.2944 27.8601 21.8414C33.1245 15.9263 41.5867 13.921 48.7972 16.5478C48.8486 16.5635 48.9023 16.5279 48.9023 16.4741V2C48.9023 0.895429 48.0069 0 46.9023 0H2ZM10.5117 11.1175C10.5117 12.222 9.61629 13.1175 8.51172 13.1175H7.94141C6.83684 13.1175 5.94141 12.222 5.94141 11.1175V8.10115C5.94141 6.99658 6.83684 6.10115 7.94141 6.10115H8.51172C9.61629 6.10115 10.5117 6.99658 10.5117 8.10115V11.1175ZM24.2227 8.67701C24.2227 9.78158 23.3272 10.677 22.2227 10.677H17.082C15.9775 10.677 15.082 9.78158 15.082 8.67701V8.10115C15.082 6.99658 15.9775 6.10115 17.082 6.10115H22.2227C23.3272 6.10115 24.2227 6.99658 24.2227 8.10115V8.67701Z" fill="url(#paint1_linear)"/>
<path d="M55.4727 9.91437C54.3681 9.91437 53.4727 10.8098 53.4727 11.9144V17.9476C53.4727 18.6016 53.7975 19.2087 54.3117 19.6127C60.7911 24.7038 63.2846 33.7408 60.4353 41.4335C60.1449 42.2175 60.2951 43.1112 60.8859 43.7027L69.9706 52.7984C70.3457 53.174 70.8548 53.385 71.3856 53.385H76C77.1046 53.385 78 52.4896 78 51.385V11.9144C78 10.8098 77.1046 9.91437 76 9.91437H55.4727ZM71.9062 18.5914C71.9062 19.6959 71.0108 20.5914 69.9062 20.5914H69.3359C68.2314 20.5914 67.3359 19.6959 67.3359 18.5914V18.0155C67.3359 16.9109 68.2314 16.0155 69.3359 16.0155H69.9062C71.0108 16.0155 71.9062 16.9109 71.9062 18.0155V18.5914Z" fill="url(#paint2_linear)"/>
<path d="M76.0442 65.3512C76.8242 66.1322 76.824 67.3974 76.0438 68.1782L75.6385 68.5839C74.8572 69.3658 73.5898 69.3656 72.8087 68.5835L55.8165 51.5708C54.9693 50.7225 55.0606 49.3285 55.9095 48.4819C55.9183 48.473 55.9272 48.4642 55.9361 48.4553L55.9391 48.4523C55.947 48.4444 55.9548 48.4365 55.9627 48.4286C56.8088 47.5787 58.204 47.4894 59.0515 48.3379L76.0442 65.3512Z" fill="url(#paint3_linear)"/>
<path d="M57.0299 34.7659C57.1338 41.9608 51.514 48.4488 44.4143 49.3934C35.868 50.7602 27.7106 43.9678 27.5102 35.3195C27.0776 24.8513 37.5245 17.3359 47.2395 20.8489C47.24 20.8491 47.2405 20.8491 47.2411 20.8491C47.2415 20.8491 47.242 20.8492 47.2425 20.8494C53.0117 22.8432 57.1109 28.6422 57.0299 34.7659Z" fill="url(#paint4_linear)"/>
<defs>
<linearGradient id="paint0_linear" x1="37.7388" y1="70" x2="33.3829" y2="0.259955" gradientUnits="userSpaceOnUse">
<stop stop-color="#FFD408"/>
<stop offset="1" stop-color="#FFDF46"/>
</linearGradient>
<linearGradient id="paint1_linear" x1="37.7388" y1="70" x2="33.3829" y2="0.259955" gradientUnits="userSpaceOnUse">
<stop stop-color="#FFD408"/>
<stop offset="1" stop-color="#FFDF46"/>
</linearGradient>
<linearGradient id="paint2_linear" x1="37.7388" y1="70" x2="33.3829" y2="0.259955" gradientUnits="userSpaceOnUse">
<stop stop-color="#FFD408"/>
<stop offset="1" stop-color="#FFDF46"/>
</linearGradient>
<linearGradient id="paint3_linear" x1="37.7388" y1="70" x2="33.3829" y2="0.259955" gradientUnits="userSpaceOnUse">
<stop stop-color="#FFD408"/>
<stop offset="1" stop-color="#FFDF46"/>
</linearGradient>
<linearGradient id="paint4_linear" x1="37.7388" y1="70" x2="33.3829" y2="0.259955" gradientUnits="userSpaceOnUse">
<stop stop-color="#FFD408"/>
<stop offset="1" stop-color="#FFDF46"/>
</linearGradient>
</defs>
</svg>
