<svg width="58" height="58" viewBox="0 0 58 58" fill="none" xmlns="http://www.w3.org/2000/svg">
<path d="M55.9284 0H33.1433C32.594 0.000121369 32.0673 0.218465 31.6789 0.606968L0.608323 31.6775C-0.201089 32.486 -0.201817 33.7975 0.606746 34.6069C0.607231 34.6074 0.607838 34.608 0.608323 34.6085L23.3934 57.3935C24.2023 58.2021 25.5134 58.2021 26.3222 57.3935L57.3928 26.323C57.7818 25.9341 58.0001 25.4065 57.9998 24.8565V2.07141C57.9998 0.927383 57.0724 0 55.9284 0ZM43.5001 18.6423C41.2122 18.6423 39.3574 16.7876 39.3574 14.4996C39.3574 12.2117 41.2122 10.3569 43.5001 10.3569C45.7881 10.3569 47.6428 12.2117 47.6428 14.4996C47.6428 16.7876 45.7881 18.6423 43.5001 18.6423Z" fill="#FFD408"/>
</svg>
