<svg width="82" height="55" viewBox="0 0 82 55" fill="none" xmlns="http://www.w3.org/2000/svg">
<path d="M28.4749 53.8074H0.981892C0.748108 53.8074 0.514324 53.7139 0.28054 53.5268C0.0935135 53.3397 0 53.1059 0 52.8253C0 52.4511 0.467567 51.8431 1.4027 51.0013C1.73 50.7207 2.73527 49.8554 4.41851 48.4056C6.10175 46.909 7.20054 45.9269 7.71486 45.4592C8.22919 44.9915 9.25783 44.0327 10.8008 42.5829C12.3438 41.1331 13.4192 40.0808 14.027 39.426C14.6816 38.7245 15.6401 37.6488 16.9026 36.199C18.2118 34.7491 19.1469 33.5565 19.708 32.6212C20.269 31.639 20.9704 30.423 21.812 28.9732C22.7004 27.5234 23.3316 26.2139 23.7057 25.0446C24.0797 23.8287 24.407 22.4957 24.6876 21.0459C25.0149 19.5493 25.1785 18.0761 25.1785 16.6263C25.1785 14.0072 24.8512 11.7623 24.1966 9.89158C23.542 8.02083 22.677 6.64116 21.6016 5.75255C20.573 4.86394 19.5677 4.23257 18.5858 3.85842C17.6039 3.48427 16.5986 3.29719 15.57 3.29719C12.4373 3.29719 9.95919 4.13903 8.13567 5.8227C7.34081 6.61777 6.63946 7.69345 6.03162 9.04975C5.47054 10.406 5.19 11.5753 5.19 12.5574C5.19 13.446 4.88608 13.8903 4.27824 13.8903C3.95094 13.8903 3.74054 13.446 3.64703 12.5574C3.36649 10.0319 3.22621 7.20238 3.22621 4.06888C3.22621 3.50765 3.50676 3.03997 4.06784 2.66582C7.52784 0.888606 11.7593 0 16.7623 0C22.6069 0 27.002 1.40306 29.9477 4.20918C32.8934 6.96854 34.3662 10.5463 34.3662 14.9426C34.3662 16.8134 34.0389 18.7309 33.3843 20.6952C32.7765 22.6594 32.0517 24.46 31.2101 26.0969C30.4153 27.6871 29.223 29.4409 27.6332 31.3584C26.0903 33.2292 24.7577 34.7725 23.6355 35.9885C22.5134 37.1577 20.9236 38.631 18.8663 40.4082C16.8558 42.1854 15.383 43.4481 14.4478 44.1964C13.5595 44.9447 12.1568 46.0906 10.2397 47.6339C10.0527 47.7742 9.98256 47.8912 10.0293 47.9847C10.0761 48.0782 10.193 48.125 10.38 48.125H15.1492C21.134 48.125 25.1551 47.9847 27.2124 47.7041C31.6076 47.1896 34.2727 45.1084 35.2078 41.4605C35.3949 40.7122 35.6754 40.338 36.0494 40.338C36.4235 40.338 36.6105 40.7823 36.6105 41.6709C36.6105 42.2321 36.3534 43.7521 35.839 46.2309C35.3715 48.6628 34.9507 50.4868 34.5766 51.7028C34.2961 52.6382 33.7817 53.2228 33.0336 53.4566C32.2855 53.6905 30.7659 53.8074 28.4749 53.8074Z" fill="#FFD820"/>
<path d="M82 25.8865C82 34.8661 80.2466 41.9749 76.7399 47.213C73.2331 52.4043 68.3704 55 62.1518 55C58.832 55 55.8864 54.1348 53.3147 52.4043C50.7899 50.6739 48.8261 48.4524 47.4234 45.7398C46.0674 42.9804 45.0622 40.1977 44.4076 37.3916C43.753 34.5387 43.4257 31.756 43.4257 29.0434C43.4257 23.4779 44.127 18.5438 45.5297 14.2411C46.9792 9.93835 49.2235 6.50085 52.2627 3.92857C55.3019 1.30952 58.9723 0 63.2739 0C65.9858 0 68.4405 0.561225 70.6381 1.68367C72.8357 2.75935 74.6124 4.16242 75.9684 5.89286C77.3711 7.6233 78.54 9.65774 79.4751 11.9962C80.4103 14.2878 81.0649 16.6029 81.4389 18.9413C81.813 21.233 82 23.548 82 25.8865ZM73.2331 28.6224C73.2331 24.0391 72.8824 19.9235 72.1811 16.2755C71.4797 12.5808 70.2407 9.47066 68.4639 6.94515C66.6872 4.41964 64.4662 3.15689 61.8011 3.15689C58.9489 3.15689 56.6345 5.12117 54.8577 9.04975C53.081 12.9315 52.1926 18.7075 52.1926 26.3776C52.1926 29.5578 52.403 32.6212 52.8238 35.5676C53.2914 38.4673 53.946 41.1565 54.7876 43.6352C55.676 46.1139 56.8683 48.1016 58.3645 49.5982C59.8607 51.0948 61.5673 51.8431 63.4843 51.8431C66.4768 51.8431 68.838 49.8788 70.568 45.9503C72.3447 41.9749 73.2331 36.199 73.2331 28.6224Z" fill="#FFD820"/>
</svg>
