<svg width="50" height="34" viewBox="0 0 50 34" fill="none" xmlns="http://www.w3.org/2000/svg">
<path d="M17.3627 33.2628H0.598714C0.456163 33.2628 0.313612 33.2049 0.171061 33.0893C0.0570204 32.9736 0 32.8291 0 32.6556C0 32.4243 0.285102 32.0485 0.855306 31.5281C1.05488 31.3546 1.66785 30.8197 2.69421 29.9235C3.72058 28.9983 4.39057 28.3912 4.70418 28.102C5.0178 27.8129 5.64502 27.2202 6.58586 26.324C7.5267 25.4277 8.18243 24.7772 8.55306 24.3724C8.95221 23.9388 9.53666 23.2738 10.3064 22.3776C11.1047 21.4813 11.6749 20.744 12.0171 20.1658C12.3592 19.5587 12.7868 18.807 13.3 17.9107C13.8417 17.0145 14.2266 16.2049 14.4547 15.4821C14.6828 14.7304 14.8823 13.9065 15.0534 13.0102C15.253 12.085 15.3527 11.1743 15.3527 10.2781C15.3527 8.65901 15.1532 7.27126 14.754 6.11479C14.3549 4.95833 13.8275 4.10544 13.1717 3.55612C12.5445 3.0068 11.9315 2.6165 11.3328 2.3852C10.7341 2.15391 10.1211 2.03826 9.4939 2.03826C7.58372 2.03826 6.07267 2.55867 4.96078 3.59949C4.4761 4.09099 4.04845 4.75595 3.67782 5.59439C3.33569 6.43282 3.16463 7.15561 3.16463 7.76276C3.16463 8.31208 2.97932 8.58673 2.60868 8.58673C2.40911 8.58673 2.28082 8.31208 2.2238 7.76276C2.05274 6.20153 1.9672 4.45238 1.9672 2.5153C1.9672 2.16837 2.13827 1.87925 2.48039 1.64796C4.59014 0.54932 7.17032 0 10.2209 0C13.7847 0 16.4646 0.867347 18.2608 2.60204C20.0569 4.30782 20.955 6.51956 20.955 9.23724C20.955 10.3937 20.7554 11.5791 20.3563 12.7934C19.9857 14.0077 19.5437 15.1207 19.0306 16.1327C18.5459 17.1156 17.8189 18.1998 16.8495 19.3852C15.9087 20.5417 15.0962 21.4957 14.4119 22.2474C13.7277 22.9702 12.7583 23.881 11.5039 24.9796C10.2779 26.0782 9.37986 26.8588 8.80966 27.3214C8.26796 27.784 7.41265 28.4923 6.24374 29.4464C6.12969 29.5332 6.08693 29.6054 6.11544 29.6633C6.14395 29.7211 6.21523 29.75 6.32927 29.75H9.23731C12.8866 29.75 15.3385 29.6633 16.5929 29.4898C19.2729 29.1718 20.898 27.8852 21.4682 25.6301C21.5822 25.1675 21.7533 24.9362 21.9814 24.9362C22.2095 24.9362 22.3235 25.2109 22.3235 25.7602C22.3235 26.1071 22.1667 27.0468 21.8531 28.5791C21.568 30.0825 21.3114 31.21 21.0833 31.9617C20.9122 32.54 20.5986 32.9014 20.1425 33.0459C19.6863 33.1905 18.7597 33.2628 17.3627 33.2628Z" fill="url(#paint0_linear)"/>
<path d="M50 16.0026C50 21.5536 48.9309 25.9481 46.7926 29.1862C44.6543 32.3954 41.6893 34 37.8974 34C35.8732 34 34.077 33.4651 32.509 32.3954C30.9694 31.3257 29.772 29.9524 28.9167 28.2755C28.0899 26.5697 27.4769 24.8495 27.0778 23.1148C26.6786 21.3512 26.4791 19.631 26.4791 17.9541C26.4791 14.5136 26.9067 11.4634 27.762 8.80357C28.6459 6.14371 30.0143 4.01871 31.8675 2.42857C33.7207 0.809524 35.9587 0 38.5817 0C40.2353 0 41.732 0.346939 43.072 1.04082C44.412 1.70578 45.4954 2.57313 46.3222 3.64286C47.1775 4.71258 47.8902 5.97024 48.4604 7.41582C49.0307 8.83248 49.4298 10.2636 49.6579 11.7092C49.886 13.1259 50 14.557 50 16.0026ZM44.6543 17.6939C44.6543 14.8605 44.4405 12.3163 44.0129 10.0612C43.5852 7.77721 42.8297 5.85459 41.7463 4.29337C40.6629 2.73214 39.3087 1.95153 37.6836 1.95153C35.9445 1.95153 34.5332 3.16582 33.4498 5.59439C32.3664 7.99405 31.8247 11.5646 31.8247 16.3061C31.8247 18.2721 31.953 20.1658 32.2096 21.9872C32.4947 23.7798 32.8939 25.4422 33.4071 26.9745C33.9488 28.5068 34.6758 29.7355 35.5881 30.6607C36.5004 31.5859 37.541 32.0485 38.71 32.0485C40.5346 32.0485 41.9744 30.8342 43.0293 28.4056C44.1126 25.9481 44.6543 22.3776 44.6543 17.6939Z" fill="url(#paint1_linear)"/>
<defs>
<linearGradient id="paint0_linear" x1="24.1915" y1="34" x2="22.5858" y2="0.0701115" gradientUnits="userSpaceOnUse">
<stop stop-color="#FFD408"/>
<stop offset="1" stop-color="#FFDF46"/>
</linearGradient>
<linearGradient id="paint1_linear" x1="24.1915" y1="34" x2="22.5858" y2="0.0701115" gradientUnits="userSpaceOnUse">
<stop stop-color="#FFD408"/>
<stop offset="1" stop-color="#FFDF46"/>
</linearGradient>
</defs>
</svg>
