<svg width="78" height="69" viewBox="0 0 78 69" fill="none" xmlns="http://www.w3.org/2000/svg">
<path d="M68.8338 35.9432C69.8839 36.2877 71.0079 36.3404 72.0856 36.0955C73.1634 35.8506 74.1543 35.3174 74.9524 34.5529L77.9688 31.6648L74.0002 30.3629C72.9501 30.0183 71.826 29.9656 70.7483 30.2105C69.6706 30.4553 68.6797 30.9885 67.8816 31.753L66.4733 33.1018C66.5942 32.0302 66.6651 30.9496 66.686 29.86C66.7808 25.1166 65.8878 20.4054 64.0638 16.0258L66.8343 15.4516C67.9165 15.2275 68.9175 14.7133 69.7301 13.9643C70.5428 13.2152 71.1365 12.2593 71.4479 11.1988L72.6247 7.19127L68.5348 8.03884C67.4526 8.26304 66.4516 8.77717 65.639 9.52625C64.8264 10.2753 64.2327 11.2312 63.9214 12.2916L63.3148 14.3577C62.6161 12.9048 61.8167 11.5026 60.9226 10.1611L54.8188 1.00414C54.6211 0.707604 54.3137 0.501752 53.9642 0.431869C53.6147 0.361986 53.2518 0.433795 52.9553 0.631499C52.6587 0.829204 52.4529 1.13661 52.383 1.48609C52.3131 1.83557 52.3849 2.1985 52.5826 2.49503L58.3497 11.1454C57.1983 10.4943 55.8664 10.2356 54.5551 10.4084L50.4145 10.9565L52.8465 14.3519C53.49 15.2505 54.3657 15.9572 55.3798 16.3966C56.394 16.8359 57.5085 16.9914 58.6041 16.8463L61.337 16.4846C63.0373 20.349 63.943 24.5159 64.0001 28.7375C63.3769 27.2493 62.1891 26.0689 60.697 25.455L56.8337 23.8682L57.2517 28.0239C57.3622 29.1236 57.7695 30.1725 58.4301 31.0585C59.0906 31.9445 59.9796 32.6344 61.0019 33.0543L63.6234 34.1309C63.0349 37.9076 61.7624 41.5453 59.8684 44.8653L59.9756 44.3831C60.2158 43.3043 60.1582 42.1806 59.8091 41.132C59.46 40.0834 58.8325 39.1494 57.9936 38.4299L54.8227 35.711L53.9156 39.788C53.6756 40.8666 53.7332 41.9903 54.0823 43.0388C54.4314 44.0872 55.0589 45.0211 55.8977 45.7406L58.098 47.6282C58.068 47.6702 58.0389 47.7122 58.0087 47.7545C55.4478 51.31 52.1727 54.2915 48.3931 56.5082L48.3881 56.5111L49.1322 55.2711C49.7009 54.3235 50.0013 53.239 50.0013 52.1338C50.0013 51.0286 49.7009 49.9442 49.1322 48.9965L46.9834 45.4151L44.8344 48.9965C44.2659 49.9442 43.9655 51.0286 43.9655 52.1338C43.9655 53.239 44.2659 54.3234 44.8344 55.2711L46.3115 57.7327L39 62.0347L31.6875 57.7336L33.1646 55.272C33.7331 54.3243 34.0335 53.2398 34.0335 52.1347C34.0335 51.0295 33.7331 49.9451 33.1646 48.9973L31.0156 45.4159L28.8668 48.9973C28.2981 49.945 27.9977 51.0295 27.9977 52.1347C27.9977 53.2399 28.2981 54.3243 28.8668 55.272L29.6109 56.5119L29.6058 56.5091C25.8263 54.2923 22.5512 51.3108 19.9903 47.7554C19.9601 47.7136 19.931 47.6714 19.9009 47.6291L22.1023 45.7406C22.9412 45.0211 23.5688 44.0871 23.9179 43.0385C24.267 41.99 24.3245 40.8662 24.0844 39.7875L23.1773 35.7105L20.0069 38.4294C19.1681 39.1489 18.5405 40.0829 18.1914 41.1315C17.8423 42.1801 17.7847 43.3038 18.0249 44.3826L18.1321 44.8648C16.2381 41.5448 14.9656 37.9071 14.3771 34.1304L16.9986 33.0538C18.0209 32.6339 18.9099 31.944 19.5704 31.058C20.231 30.172 20.6383 29.1231 20.7488 28.0234L21.1668 23.8677L17.3035 25.4545C15.8114 26.0684 14.6236 27.2488 14.0004 28.737C14.0575 24.5154 14.9632 20.3485 16.6635 16.4841L19.3964 16.8458C20.492 16.9909 21.6065 16.8354 22.6207 16.3961C23.6348 15.9567 24.5105 15.25 25.154 14.3514L27.586 10.9559L23.4454 10.4079C22.1341 10.2351 20.8022 10.4938 19.6508 11.1449L25.4179 2.49452C25.6156 2.19799 25.6874 1.83506 25.6175 1.48558C25.5476 1.1361 25.3418 0.8287 25.0452 0.630996C24.7487 0.433291 24.3858 0.361482 24.0363 0.431365C23.6868 0.501249 23.3794 0.7071 23.1817 1.00363L17.0774 10.1598C16.1833 11.5012 15.3839 12.9035 14.6852 14.3563L14.0786 12.2903C13.7673 11.2299 13.1736 10.274 12.361 9.52491C11.5484 8.77582 10.5474 8.26169 9.46521 8.03749L5.37534 7.19043L6.55213 11.198C6.8635 12.2584 7.45724 13.2143 8.26988 13.9634C9.08252 14.7125 10.0835 15.2266 11.1657 15.4508L13.9362 16.0249C12.1122 20.4046 11.2192 25.1158 11.314 29.8592C11.3344 30.9479 11.4053 32.0285 11.5267 33.101L10.1184 31.7522C9.32032 30.9877 8.32941 30.4545 7.25168 30.2097C6.17396 29.9648 5.04995 30.0175 3.99985 30.3621L0.03125 31.6648L3.04763 34.5539C3.84575 35.3184 4.83665 35.8516 5.91437 36.0965C6.9921 36.3414 8.11612 36.2887 9.16623 35.9442L11.8075 35.0776C12.5514 39.4022 14.1225 43.5427 16.4349 47.2721L15.1612 46.6653C14.1635 46.1898 13.0553 45.9944 11.9552 46.1C10.855 46.2056 9.80428 46.6083 8.91529 47.2649L5.55591 49.7463L9.32647 51.5436C10.3242 52.019 11.4323 52.2144 12.5324 52.1087C13.6325 52.0031 14.6833 51.6004 15.5722 50.9438L17.7928 49.3037C17.7993 49.3128 17.8055 49.322 17.8119 49.3309C20.4397 52.9786 23.7623 56.0711 27.5887 58.431L26.871 58.3421C25.7742 58.2062 24.6611 58.371 23.6507 58.8189C22.6403 59.2667 21.7706 59.9808 21.1347 60.8847L18.7312 64.3005L22.8762 64.8138C23.9732 64.9493 25.0864 64.7841 26.0967 64.3358C27.107 63.8875 27.9765 63.173 28.6121 62.2687L30.2179 59.9865L36.3498 63.5935L31.5193 66.4343C31.3672 66.5238 31.2342 66.6424 31.1279 66.7832C31.0216 66.9241 30.9441 67.0845 30.8998 67.2553C30.8555 67.4262 30.8453 67.604 30.8698 67.7788C30.8942 67.9536 30.9528 68.1218 31.0423 68.2739C31.1318 68.4261 31.2503 68.5591 31.3912 68.6653C31.5321 68.7716 31.6925 68.8492 31.8633 68.8934C32.0341 68.9377 32.212 68.948 32.3868 68.9235C32.5616 68.8991 32.7298 68.8404 32.8819 68.751L39 65.1527L45.1181 68.7523C45.4253 68.933 45.7917 68.9843 46.1367 68.8948C46.4817 68.8053 46.777 68.5825 46.9577 68.2753C47.1384 67.9681 47.1896 67.6017 47.1002 67.2567C47.0107 66.9117 46.7879 66.6164 46.4807 66.4357L41.6502 63.5943L47.7821 59.9874L49.3879 62.2696C50.024 63.1735 50.8938 63.8875 51.9043 64.3352C52.9149 64.7829 54.0281 64.9475 55.125 64.8114L59.27 64.2981L56.8665 60.8823C56.2306 59.9784 55.3609 59.2644 54.3505 58.8165C53.3401 58.3687 52.227 58.2039 51.1302 58.3398L50.4125 58.4286C54.2389 56.0688 57.5614 52.9762 60.1893 49.3286C60.1956 49.3197 60.2019 49.3104 60.2084 49.3014L62.429 50.9414C63.3179 51.5981 64.3686 52.0007 65.4688 52.1064C66.5689 52.212 67.677 52.0167 68.6747 51.5412L72.4453 49.744L69.0859 47.2626C68.1969 46.6059 67.1461 46.2033 66.046 46.0976C64.9458 45.992 63.8377 46.1874 62.84 46.6629L61.5663 47.2698C63.8787 43.5404 65.4498 39.3999 66.1936 35.0753L68.8338 35.9432Z" fill="#FFD408"/>
<path d="M30.4353 25.6303L34.815 28.8123L33.1422 33.9611C33.0735 34.1725 33.0735 34.4003 33.1422 34.6117C33.2109 34.8232 33.3447 35.0074 33.5246 35.1381C33.7045 35.2688 33.9211 35.3392 34.1434 35.3392C34.3657 35.3392 34.5823 35.2689 34.7622 35.1382L39.142 31.956L43.5218 35.1382C43.7017 35.2689 43.9183 35.3392 44.1406 35.3392C44.3629 35.3392 44.5795 35.2688 44.7594 35.1381C44.9393 35.0074 45.0731 34.8232 45.1418 34.6117C45.2105 34.4003 45.2105 34.1725 45.1419 33.9611L43.4689 28.8123L47.8487 25.6303C48.0285 25.4997 48.1624 25.3154 48.2311 25.104C48.2998 24.8926 48.2999 24.6649 48.2312 24.4535C48.1626 24.242 48.0288 24.0578 47.849 23.927C47.6692 23.7963 47.4527 23.7258 47.2304 23.7257H41.8167L40.1438 18.577C40.075 18.3656 39.9412 18.1813 39.7613 18.0506C39.5814 17.92 39.3648 17.8496 39.1425 17.8496C38.9202 17.8496 38.7036 17.92 38.5237 18.0506C38.3439 18.1813 38.21 18.3656 38.1412 18.577L36.4683 23.7257H31.055C30.8326 23.7256 30.6158 23.7958 30.4358 23.9264C30.2558 24.0571 30.1218 24.2413 30.053 24.4528C29.9842 24.6643 29.9841 24.8922 30.0528 25.1037C30.1215 25.3153 30.2554 25.4996 30.4353 25.6303Z" fill="#FFD408"/>
</svg>
